solid MouseBox_3dPrint_Top
facet normal 6.912998903614479e-06 -2.7258925299325065e-06 0.9999999999723901
  outer loop
    vertex 3.7324928275895024 -8.899054211951526 27.498860021607587
    vertex -155.26836959228305 -1.9185278108778727 27.500121113470982
    vertex -155.27026686535126 -8.932395592793938 27.499959116626044
  endloop
endfacet
facet normal 6.912998903614479e-06 -2.7258925299325065e-06 0.9999999999723901
  outer loop
    vertex -155.26836959228305 -1.9185278108778727 27.500121113470982
    vertex 3.7324928275895024 -8.899054211951526 27.498860021607587
    vertex 3.731629210348579 -1.8990542245461681 27.498879108825463
  endloop
endfacet
facet normal 0.00021160648683636883 -0.9999999776087644 -2.2727497369131674e-06
  outer loop
    vertex -135.26882772288536 -2.7280763459333364 14.499026451337404
    vertex -152.4680309570418 -2.731682856829226 -3.208178839092246e-05
    vertex -135.26882772288536 -2.7280763459333364 -0.0005530758475163698
  endloop
endfacet
facet normal 0.00021160648683636883 -0.9999999776087644 -2.2727497369131674e-06
  outer loop
    vertex -152.4680309570418 -2.731682856829226 -3.208178839092246e-05
    vertex -135.26882772288536 -2.7280763459333364 14.499026451337404
    vertex -152.46793071302994 -2.7317487434495473 14.499967917715443
  endloop
endfacet
facet normal 0.00020969054359598139 -0.9999999780046076 -4.545354429705212e-06
  outer loop
    vertex 3.7308973343580787 -1.3990393820309281 24.198894111878758
    vertex -152.2691261944267 -1.4317333905039356 20.29997245064888
    vertex 3.7308703721755974 -1.399021660801978 20.29889411201221
  endloop
endfacet
facet normal 0.00020969054359598139 -0.9999999780046076 -4.545354429705212e-06
  outer loop
    vertex -152.2691261944267 -1.4317333905039356 20.29997245064888
    vertex 3.7308973343580787 -1.3990393820309281 24.198894111878758
    vertex -152.2690992322442 -1.4317511117328856 24.199972450515382
  endloop
endfacet
facet normal -0.0002096905435959181 0.9999999780046076 4.545354423302708e-06
  outer loop
    vertex -16.268830778787517 -6.103123242313107 -0.0009889981360347274
    vertex -2.4672210665255543 -6.1002950824133375 14.498915599436797
    vertex -2.4673213105374376 -6.100229195792977 -0.001084400066995944
  endloop
endfacet
facet normal -0.0002096905435959181 0.9999999780046076 4.545354423302708e-06
  outer loop
    vertex -2.4672210665255543 -6.1002950824133375 14.498915599436797
    vertex -16.268830778787517 -6.103123242313107 -0.0009889981360347274
    vertex -16.268830778787517 -6.103189149953698 14.499011002060685
  endloop
endfacet
facet normal -0.9999999600996847 0.000282405426712077 6.914063844516501e-06
  outer loop
    vertex 0.9320659107957971 -2.6995822092426387 14.498907551389472
    vertex 0.899075171682222 -119.16501930687618 -0.0026256567192005946
    vertex 0.8991754169404439 -119.16501959219852 14.497374342934291
  endloop
endfacet
facet normal -0.9999999600996847 0.000282405426712077 6.914063844516501e-06
  outer loop
    vertex 0.899075171682222 -119.16501930687618 -0.0026256567192005946
    vertex 0.9320659107957971 -2.6995822092426387 14.498907551389472
    vertex 0.9319656667838229 -2.69951632262223 -0.0010924481143385816
  endloop
endfacet
facet normal 2.8684489236965152e-06 -1.5374687158909508e-05 0.9999999998776956
  outer loop
    vertex 3.6976072453622346 -112.96560631480789 17.497355118130834
    vertex -5.266613131238065 -8.900895786150823 17.49892222713774
    vertex -5.29950362587815 -112.96371970721079 17.497417319388706
  endloop
endfacet
facet normal 2.8684489236965152e-06 -1.5374687158909508e-05 0.9999999998776956
  outer loop
    vertex -5.266613131238065 -8.900895786150823 17.49892222713774
    vertex 3.6976072453622346 -112.96560631480789 17.497355118130834
    vertex 3.7304977400020074 -8.899009176757284 17.498860035262847
  endloop
endfacet
facet normal 6.913380123794021e-06 -4.543904859058469e-06 0.999999999965779
  outer loop
    vertex -152.26755351534968 -8.931733225538505 20.299938360490636
    vertex 3.7308703721755974 -1.399021660801978 20.29889411201221
    vertex -152.2691261944267 -1.4317333905039356 20.29997245064888
  endloop
endfacet
facet normal 6.913380123794021e-06 -4.543904859058469e-06 0.999999999965779
  outer loop
    vertex 3.7308703721755974 -1.399021660801978 20.29889411201221
    vertex -152.26755351534968 -8.931733225538505 20.299938360490636
    vertex 3.730517097466399 -8.899021899690888 20.298860035167028
  endloop
endfacet
facet normal -6.913380123799537e-06 4.5439048590583925e-06 -0.999999999965779
  outer loop
    vertex 3.7308973343580787 -1.3990393820309281 24.198894111878758
    vertex -152.26752655316722 -8.931750946767458 24.199938360357155
    vertex -152.2690992322442 -1.4317511117328856 24.199972450515382
  endloop
endfacet
facet normal -6.913380123799537e-06 4.5439048590583925e-06 -0.999999999965779
  outer loop
    vertex -152.26752655316722 -8.931750946767458 24.199938360357155
    vertex 3.7308973343580787 -1.3990393820309281 24.198894111878758
    vertex 3.732470013435071 -8.899039217065493 24.19886002172054
  endloop
endfacet
facet normal 0.9999999779910403 0.00020969057501256852 -6.912427150192561e-06
  outer loop
    vertex -152.26755351534968 -8.931733225538505 20.299938360490636
    vertex -152.2690992322442 -1.4317511117328856 24.199972450515382
    vertex -152.26752655316722 -8.931750946767458 24.199938360357155
  endloop
endfacet
facet normal 0.9999999779910403 0.00020969057501256852 -6.912427150192561e-06
  outer loop
    vertex -152.2690992322442 -1.4317511117328856 24.199972450515382
    vertex -152.26755351534968 -8.931733225538505 20.299938360490636
    vertex -152.2691261944267 -1.4317333905039356 20.29997245064888
  endloop
endfacet
facet normal -0.00020969037547293823 -0.9999999780149729 -1.8227715027936964e-08
  outer loop
    vertex -135.30088030699386 -115.73645967601445 14.498316024863659
    vertex -149.1002085797024 -115.73356582532392 -0.0015885742380697563
    vertex -135.30088030699386 -115.73645941171257 -0.0016839754828326327
  endloop
endfacet
facet normal -0.00020969037547293823 -0.9999999780149729 -1.8227715027936964e-08
  outer loop
    vertex -149.1002085797024 -115.73356582532392 -0.0015885742380697563
    vertex -135.30088030699386 -115.73645967601445 14.498316024863659
    vertex -149.10010833444434 -115.73356611064625 14.498411425415377
  endloop
endfacet
facet normal -0.9999999633425545 0.0002694269991032589 2.6906913306626076e-05
  outer loop
    vertex -155.26836959228305 -1.9185278108778727 27.500121113470982
    vertex -155.2777883376691 -8.932351716430512 17.49995916848202
    vertex -155.27026686535126 -8.932395592793938 27.499959116626044
  endloop
endfacet
facet normal -0.9999999633425545 0.0002694269991032589 2.6906913306626076e-05
  outer loop
    vertex -155.3017644643717 -123.93226603132105 23.58975350692199
    vertex -155.3019318911781 -123.93226556386763 -0.0015497980946672309
    vertex -155.30177183029014 -123.94706801983797 23.499390428640634
  endloop
endfacet
facet normal -0.9999999633425545 0.0002694269991032589 2.6906913306626076e-05
  outer loop
    vertex -155.3019318911781 -123.93226556386763 -0.0015497980946672309
    vertex -155.3017644643717 -123.93226603132105 23.58975350692199
    vertex -155.3017067587726 -123.86470944403708 24.00217260882799
  endloop
endfacet
facet normal -0.9999999633425545 0.0002694269991032589 2.6906913306626076e-05
  outer loop
    vertex -155.3019318911781 -123.93226556386763 -0.0015497980946672309
    vertex -155.3017067587726 -123.86470944403708 24.00217260882799
    vertex -155.31067883231435 -112.93226380688388 17.498454417177882
  endloop
endfacet
facet normal -0.9999999633425545 0.0002694269991032589 2.6906913306626076e-05
  outer loop
    vertex -155.3019318911781 -123.93226556386763 -0.0015497980946672309
    vertex -155.31067883231435 -112.93226380688388 17.498454417177882
    vertex -155.26905090374373 2.0677299009531533 -1.0907333855520092e-05
  endloop
endfacet
facet normal -0.9999999633425545 0.0002694269991032589 2.6906913306626076e-05
  outer loop
    vertex -155.31067883231435 -112.93226380688388 17.498454417177882
    vertex -155.3017067587726 -123.86470944403708 24.00217260882799
    vertex -155.30164330918075 -123.72604581255318 24.492422803355293
  endloop
endfacet
facet normal -0.9999999633425545 0.0002694269991032589 2.6906913306626076e-05
  outer loop
    vertex -155.31067883231435 -112.93226380688388 17.498454417177882
    vertex -155.30164330918075 -123.72604581255318 24.492422803355293
    vertex -155.30158229483712 -123.53285457192898 24.96385678683499
  endloop
endfacet
facet normal -0.9999999633425545 0.0002694269991032589 2.6906913306626076e-05
  outer loop
    vertex -155.31067883231435 -112.93226380688388 17.498454417177882
    vertex -155.30158229483712 -123.53285457192898 24.96385678683499
    vertex -155.30152449784825 -123.28761212566727 25.410431527687276
  endloop
endfacet
facet normal -0.9999999633425545 0.0002694269991032589 2.6906913306626076e-05
  outer loop
    vertex -155.31067883231435 -112.93226380688388 17.498454417177882
    vertex -155.30152449784825 -123.28761212566727 25.410431527687276
    vertex -155.3014706590793 -122.99346209068877 25.826422650164364
  endloop
endfacet
facet normal -0.9999999633425545 0.0002694269991032589 2.6906913306626076e-05
  outer loop
    vertex -155.31067883231435 -112.93226380688388 17.498454417177882
    vertex -155.3014706590793 -122.99346209068877 25.826422650164364
    vertex -155.30142146865748 -122.65417500117827 26.20649781171535
  endloop
endfacet
facet normal -0.9999999633425545 0.0002694269991032589 2.6906913306626076e-05
  outer loop
    vertex -155.31067883231435 -112.93226380688388 17.498454417177882
    vertex -155.30142146865748 -122.65417500117827 26.20649781171535
    vertex -155.30137755712545 -122.2740999763516 26.545785055110926
  endloop
endfacet
facet normal -0.9999999633425545 0.0002694269991032589 2.6906913306626076e-05
  outer loop
    vertex -155.31067883231435 -112.93226380688388 17.498454417177882
    vertex -155.30137755712545 -122.2740999763516 26.545785055110926
    vertex -155.30133948735903 -121.85810897168541 26.83993525916274
  endloop
endfacet
facet normal -0.9999999633425545 0.0002694269991032589 2.6906913306626076e-05
  outer loop
    vertex -155.31067883231435 -112.93226380688388 17.498454417177882
    vertex -155.30133948735903 -121.85810897168541 26.83993525916274
    vertex -155.3013077473519 -121.41153432822048 27.085177887518757
  endloop
endfacet
facet normal -0.9999999633425545 0.0002694269991032589 2.6906913306626076e-05
  outer loop
    vertex -155.31067883231435 -112.93226380688388 17.498454417177882
    vertex -155.3013077473519 -121.41153432822048 27.085177887518757
    vertex -155.3012827439603 -120.94010042045629 27.27836932092409
  endloop
endfacet
facet normal -0.9999999633425545 0.0002694269991032589 2.6906913306626076e-05
  outer loop
    vertex -155.31067883231435 -112.93226380688388 17.498454417177882
    vertex -155.3012827439603 -120.94010042045629 27.27836932092409
    vertex -155.3012647976878 -120.44985027900206 27.417033153404795
  endloop
endfacet
facet normal -0.9999999633425545 0.0002694269991032589 2.6906913306626076e-05
  outer loop
    vertex -155.31067883231435 -112.93226380688388 17.498454417177882
    vertex -155.3012647976878 -120.44985027900206 27.417033153404795
    vertex -155.30125413857704 -119.94706812856501 27.499391935841736
  endloop
endfacet
facet normal -0.9999999633425545 0.0002694269991032589 2.6906913306626076e-05
  outer loop
    vertex -155.31067883231435 -112.93226380688388 17.498454417177882
    vertex -155.30125413857704 -119.94706812856501 27.499391935841736
    vertex -155.303157359137 -112.93226556634156 27.49845436541736
  endloop
endfacet
facet normal -0.9999999633425545 0.0002694269991032589 2.6906913306626076e-05
  outer loop
    vertex -155.26905090374373 2.0677299009531533 -1.0907333855520092e-05
    vertex -155.31067883231435 -112.93226380688388 17.498454417177882
    vertex -155.2777883376691 -8.932351716430512 17.49995916848202
  endloop
endfacet
facet normal -0.9999999633425545 0.0002694269991032589 2.6906913306626076e-05
  outer loop
    vertex -155.26905090374373 2.0677299009531533 -1.0907333855520092e-05
    vertex -155.2777883376691 -8.932351716430512 17.49995916848202
    vertex -155.26836959228305 -1.9185278108778727 27.500121113470982
  endloop
endfacet
facet normal -0.9999999633425545 0.0002694269991032589 2.6906913306626076e-05
  outer loop
    vertex -155.26905090374373 2.0677299009531533 -1.0907333855520092e-05
    vertex -155.26836959228305 -1.9185278108778727 27.500121113470982
    vertex -155.2684243657016 -1.4157450682226873 27.41776399905862
  endloop
endfacet
facet normal -0.9999999633425545 0.0002694269991032589 2.6906913306626076e-05
  outer loop
    vertex -155.26905090374373 2.0677299009531533 -1.0907333855520092e-05
    vertex -155.2684243657016 -1.4157450682226873 27.41776399905862
    vertex -155.2684792636487 -0.9254941392197534 27.27910179366615
  endloop
endfacet
facet normal -0.9999999633425545 0.0002694269991032589 2.6906913306626076e-05
  outer loop
    vertex -155.26905090374373 2.0677299009531533 -1.0907333855520092e-05
    vertex -155.2684792636487 -0.9254941392197534 27.27910179366615
    vertex -155.26853358242116 -0.4540592501956923 27.08591192315874
  endloop
endfacet
facet normal -0.9999999633425545 0.0002694269991032589 2.6906913306626076e-05
  outer loop
    vertex -155.26905090374373 2.0677299009531533 -1.0907333855520092e-05
    vertex -155.26853358242116 -0.4540592501956923 27.08591192315874
    vertex -155.2685866257399 -0.00748343618751673 26.840670770136512
  endloop
endfacet
facet normal -0.9999999633425545 0.0002694269991032589 2.6906913306626076e-05
  outer loop
    vertex -155.26905090374373 2.0677299009531533 -1.0907333855520092e-05
    vertex -155.2685866257399 -0.00748343618751673 26.840670770136512
    vertex -155.26863771367522 0.4085089210214888 26.54652193070306
  endloop
endfacet
facet normal -0.9999999633425545 0.0002694269991032589 2.6906913306626076e-05
  outer loop
    vertex -155.26905090374373 2.0677299009531533 -1.0907333855520092e-05
    vertex -155.26863771367522 0.4085089210214888 26.54652193070306
    vertex -155.26868619136206 0.7885854702450406 26.207235918632776
  endloop
endfacet
facet normal -0.9999999633425545 0.0002694269991032589 2.6906913306626076e-05
  outer loop
    vertex -155.26905090374373 2.0677299009531533 -1.0907333855520092e-05
    vertex -155.26868619136206 0.7885854702450406 26.207235918632776
    vertex -155.2687314373947 1.1278742430370603 25.82716183346462
  endloop
endfacet
facet normal -0.9999999633425545 0.0002694269991032589 2.6906913306626076e-05
  outer loop
    vertex -155.26905090374373 2.0677299009531533 -1.0907333855520092e-05
    vertex -155.2687314373947 1.1278742430370603 25.82716183346462
    vertex -155.26877287179195 1.4220261044705795 25.41117161205946
  endloop
endfacet
facet normal -0.9999999633425545 0.0002694269991032589 2.6906913306626076e-05
  outer loop
    vertex -155.26905090374373 2.0677299009531533 -1.0907333855520092e-05
    vertex -155.26877287179195 1.4220261044705795 25.41117161205946
    vertex -155.26880996343166 1.6672705020340384 24.964597578226016
  endloop
endfacet
facet normal -0.9999999633425545 0.0002694269991032589 2.6906913306626076e-05
  outer loop
    vertex -155.26905090374373 2.0677299009531533 -1.0907333855520092e-05
    vertex -155.26880996343166 1.6672705020340384 24.964597578226016
    vertex -155.26884223685883 1.8604637980340675 24.493164090928605
  endloop
endfacet
facet normal -0.9999999633425545 0.0002694269991032589 2.6906913306626076e-05
  outer loop
    vertex -155.26905090374373 2.0677299009531533 -1.0907333855520092e-05
    vertex -155.26884223685883 1.8604637980340675 24.493164090928605
    vertex -155.26886927838015 1.9991295659612456 24.002914167236362
  endloop
endfacet
facet normal -0.9999999633425545 0.0002694269991032589 2.6906913306626076e-05
  outer loop
    vertex -155.26905090374373 2.0677299009531533 -1.0907333855520092e-05
    vertex -155.26886927838015 1.9991295659612456 24.002914167236362
    vertex -155.26889074136696 2.081490334284451 23.500132020589447
  endloop
endfacet
facet normal 0.00020969037547355213 0.9999999780149729 1.822771196219942e-08
  outer loop
    vertex -5.29950362587815 -112.96371970721079 17.497417319388706
    vertex 3.6976266030672806 -112.96560636990459 20.297355118063916
    vertex 3.6976072453622346 -112.96560631480789 17.497355118130834
  endloop
endfacet
facet normal 0.00020969037547355213 0.9999999780149729 1.822771196219942e-08
  outer loop
    vertex 3.6976266030672806 -112.96560636990459 20.297355118063916
    vertex -5.29950362587815 -112.96371970721079 17.497417319388706
    vertex -146.29950052261975 -112.93415336428738 17.498392118665073
  endloop
endfacet
facet normal 0.00020969037547355213 0.9999999780149729 1.822771196219942e-08
  outer loop
    vertex 3.6976266030672806 -112.96560636990459 20.297355118063916
    vertex -146.29950052261975 -112.93415336428738 17.498392118665073
    vertex -155.31067883231435 -112.93226380688388 17.498454417177882
  endloop
endfacet
facet normal 0.00020969037547355213 0.9999999780149729 1.822771196219942e-08
  outer loop
    vertex 3.6976266030672806 -112.96560636990459 20.297355118063916
    vertex -155.31067883231435 -112.93226380688388 17.498454417177882
    vertex -152.3004440097542 -112.93289507520515 20.298433606076077
  endloop
endfacet
facet normal 0.00020969037547355213 0.9999999780149729 1.822771196219942e-08
  outer loop
    vertex -152.3004440097542 -112.93289507520515 20.298433606076077
    vertex -155.31067883231435 -112.93226380688388 17.498454417177882
    vertex -155.303157359137 -112.93226556634156 27.49845436541736
  endloop
endfacet
facet normal 0.00020969037547355213 0.9999999780149729 1.822771196219942e-08
  outer loop
    vertex -152.3004440097542 -112.93289507520515 20.298433606076077
    vertex -155.303157359137 -112.93226556634156 27.49845436541736
    vertex -152.30041704723655 -112.93289515194702 24.19843360598286
  endloop
endfacet
facet normal 0.00020969037547355213 0.9999999780149729 1.822771196219942e-08
  outer loop
    vertex -152.30041704723655 -112.93289515194702 24.19843360598286
    vertex -155.303157359137 -112.93226556634156 27.49845436541736
    vertex 3.69960233380921 -112.96560691543584 27.497355104576787
  endloop
endfacet
facet normal 0.00020969037547355213 0.9999999780149729 1.822771196219942e-08
  outer loop
    vertex 3.69960233380921 -112.96560691543584 27.497355104576787
    vertex 3.6995795193711505 -112.96560685050042 24.197355104655678
    vertex -152.30041704723655 -112.93289515194702 24.19843360598286
  endloop
endfacet
facet normal 7.85700386367354e-05 0.9999999730572876 -0.00021843116346419476
  outer loop
    vertex -152.50092145214873 -119.13285280329862 -0.001565130414198651
    vertex -135.30087032156257 -119.13103710690953 14.498314271138806
    vertex -135.30088030699386 -119.1373718874813 -0.0028651981542894282
  endloop
endfacet
facet normal 7.85700386367354e-05 0.9999999730572876 -0.00021843116346419476
  outer loop
    vertex -135.30087032156257 -119.13103710690953 14.498314271138806
    vertex -152.50092145214873 -119.13285280329862 -0.001565130414198651
    vertex -152.5008212068906 -119.13285308862102 14.498434869239317
  endloop
endfacet
facet normal 0.00020969037547330973 0.9999999780149729 1.8227711037378336e-08
  outer loop
    vertex -152.30201668757027 -120.43289491031746 20.298433469368266
    vertex 3.6980068415550775 -120.4656066856127 24.19735496794784
    vertex 3.697979879037398 -120.46560660887086 20.29735496804103
  endloop
endfacet
facet normal 0.00020969037547330973 0.9999999780149729 1.8227711037378336e-08
  outer loop
    vertex 3.6980068415550775 -120.4656066856127 24.19735496794784
    vertex -152.30201668757027 -120.43289491031746 20.298433469368266
    vertex -152.3019897250526 -120.43289498705933 24.19843346927503
  endloop
endfacet
facet normal 0.9999999549999818 -0.0002999203718292672 -6.914107149565931e-06
  outer loop
    vertex -2.500211806210774 -115.76430643434907 -0.00260208894675924
    vertex -2.4672210665255543 -6.1002950824133375 14.498915599436797
    vertex -2.5001115609526425 -115.76430671967145 14.497397910706713
  endloop
endfacet
facet normal 0.9999999549999818 -0.0002999203718292672 -6.914107149565931e-06
  outer loop
    vertex -2.4672210665255543 -6.1002950824133375 14.498915599436797
    vertex -2.500211806210774 -115.76430643434907 -0.00260208894675924
    vertex -2.4673213105374376 -6.100229195792977 -0.001084400066995944
  endloop
endfacet
facet normal 3.9343635926740655e-06 -1.5472427665642178e-05 0.9999999998725624
  outer loop
    vertex -146.29950052261975 -112.93415336428738 17.498392118665073
    vertex -155.2777883376691 -8.932351716430512 17.49995916848202
    vertex -155.31067883231435 -112.93226380688388 17.498454417177882
  endloop
endfacet
facet normal 3.9343635926740655e-06 -1.5472427665642178e-05 0.9999999998725624
  outer loop
    vertex -155.2777883376691 -8.932351716430512 17.49995916848202
    vertex -146.29950052261975 -112.93415336428738 17.498392118665073
    vertex -146.26661002797482 -8.930462157227735 17.49989687936687
  endloop
endfacet
facet normal -0.999999950028005 0.00031606357345623687 6.91414270177884e-06
  outer loop
    vertex -5.266613131238065 -8.900895786150823 17.49892222713774
    vertex -5.29962461153454 -112.9637193628562 -0.002582680193107173
    vertex -5.29950362587815 -112.96371970721079 17.497417319388706
  endloop
endfacet
facet normal -0.999999950028005 0.00031606357345623687 6.91414270177884e-06
  outer loop
    vertex -5.29962461153454 -112.9637193628562 -0.002582680193107173
    vertex -5.266613131238065 -8.900895786150823 17.49892222713774
    vertex -5.266734115390364 -8.900816267815904 -0.0010777722634251112
  endloop
endfacet
facet normal -5.025129633386073e-06 7.1633014502186426e-06 -0.9999999999617177
  outer loop
    vertex -152.5008212068906 -119.13285308862102 14.498434869239317
    vertex -149.10010833444434 -115.73356611064625 14.498411425415377
    vertex -135.30087032156257 -119.13103710690953 14.498314271138806
  endloop
endfacet
facet normal -5.025129633386073e-06 7.1633014502186426e-06 -0.9999999999617177
  outer loop
    vertex -149.10010833444434 -115.73356611064625 14.498411425415377
    vertex -152.5008212068906 -119.13285308862102 14.498434869239317
    vertex -152.46793071302994 -2.7317487434495473 14.499967917715443
  endloop
endfacet
facet normal -5.025129633386073e-06 7.1633014502186426e-06 -0.9999999999617177
  outer loop
    vertex -135.30087032156257 -119.13103710690953 14.498314271138806
    vertex -149.10010833444434 -115.73356611064625 14.498411425415377
    vertex -135.30088030699386 -115.73645967601445 14.498316024863659
  endloop
endfacet
facet normal -5.025129633386073e-06 7.1633014502186426e-06 -0.9999999999617177
  outer loop
    vertex -135.30087032156257 -119.13103710690953 14.498314271138806
    vertex -135.30088030699386 -115.73645967601445 14.498316024863659
    vertex -135.30088030699366 -112.9364593501545 14.49831605206547
  endloop
endfacet
facet normal -5.025129633386073e-06 7.1633014502186426e-06 -0.9999999999617177
  outer loop
    vertex -135.30087032156257 -119.13103710690953 14.498314271138806
    vertex -135.30088030699366 -112.9364593501545 14.49831605206547
    vertex -16.300294842741888 -112.9614126284137 14.497513088138867
  endloop
endfacet
facet normal -5.025129633386073e-06 7.1633014502186426e-06 -0.9999999999617177
  outer loop
    vertex -135.30087032156257 -119.13103710690953 14.498314271138806
    vertex -16.300294842741888 -112.9614126284137 14.497513088138867
    vertex -16.300881975957175 -115.76141269872845 14.49749332192168
  endloop
endfacet
facet normal -5.025129633386073e-06 7.1633014502186426e-06 -0.9999999999617177
  outer loop
    vertex -135.30087032156257 -119.13103710690953 14.498314271138806
    vertex -16.300881975957175 -115.76141269872845 14.49749332192168
    vertex -16.301833138497845 -123.95612633738696 14.498668698098175
  endloop
endfacet
facet normal -5.025129633386073e-06 7.1633014502186426e-06 -0.9999999999617177
  outer loop
    vertex -16.26883077187741 -2.703156121417836 14.499026451337404
    vertex -16.268830778787517 -6.103189149953698 14.499011002060685
    vertex -16.269053743138564 2.0979253436671654 14.49902826563458
  endloop
endfacet
facet normal -5.025129633386073e-06 7.1633014502186426e-06 -0.9999999999617177
  outer loop
    vertex -16.268830778787517 -6.103189149953698 14.499011002060685
    vertex -16.26883077187741 -2.703156121417836 14.499026451337404
    vertex -2.4672210665255543 -6.1002950824133375 14.498915599436797
  endloop
endfacet
facet normal -5.025129633386073e-06 7.1633014502186426e-06 -0.9999999999617177
  outer loop
    vertex -2.4672210665255543 -6.1002950824133375 14.498915599436797
    vertex -16.26883077187741 -2.703156121417836 14.499026451337404
    vertex 0.9320659107957971 -2.6995822092426387 14.498907551389472
  endloop
endfacet
facet normal -5.025129633386073e-06 7.1633014502186426e-06 -0.9999999999617177
  outer loop
    vertex -2.4672210665255543 -6.1002950824133375 14.498915599436797
    vertex 0.9320659107957971 -2.6995822092426387 14.498907551389472
    vertex 0.8991754169404439 -119.16501959219852 14.497374342934291
  endloop
endfacet
facet normal -5.025129633386073e-06 7.1633014502186426e-06 -0.9999999999617177
  outer loop
    vertex -16.300881975957175 -115.76141269872845 14.49749332192168
    vertex -16.30078111413512 -119.15913575729465 14.497491567398212
    vertex -16.301833138497845 -123.95612633738696 14.498668698098175
  endloop
endfacet
facet normal -5.025129633386073e-06 7.1633014502186426e-06 -0.9999999999617177
  outer loop
    vertex -16.30078111413512 -119.15913575729465 14.497491567398212
    vertex -16.300881975957175 -115.76141269872845 14.49749332192168
    vertex -2.5001115609526425 -115.76430671967145 14.497397910706713
  endloop
endfacet
facet normal -5.025129633386073e-06 7.1633014502186426e-06 -0.9999999999617177
  outer loop
    vertex -16.30078111413512 -119.15913575729465 14.497491567398212
    vertex -2.5001115609526425 -115.76430671967145 14.497397910706713
    vertex 0.8991754169404439 -119.16501959219852 14.497374342934291
  endloop
endfacet
facet normal -5.025129633386073e-06 7.1633014502186426e-06 -0.9999999999617177
  outer loop
    vertex 0.8991754169404439 -119.16501959219852 14.497374342934291
    vertex -2.5001115609526425 -115.76430671967145 14.497397910706713
    vertex -2.4672210665255543 -6.1002950824133375 14.498915599436797
  endloop
endfacet
facet normal -5.025129633386073e-06 7.1633014502186426e-06 -0.9999999999617177
  outer loop
    vertex -16.269053743138564 2.0979253436671654 14.49902826563458
    vertex -135.26882772288536 -2.7280763459333364 14.499026451337404
    vertex -135.2689512224334 2.0703181042550463 14.499028253571177
  endloop
endfacet
facet normal -5.025129633386073e-06 7.1633014502186426e-06 -0.9999999999617177
  outer loop
    vertex -135.26882772288536 -2.7280763459333364 14.499026451337404
    vertex -16.269053743138564 2.0979253436671654 14.49902826563458
    vertex -135.26882772288536 -6.1281423282886065 14.499833580889373
  endloop
endfacet
facet normal -5.025129633386073e-06 7.1633014502186426e-06 -0.9999999999617177
  outer loop
    vertex -135.26882772288536 -6.1281423282886065 14.499833580889373
    vertex -16.269053743138564 2.0979253436671654 14.49902826563458
    vertex -135.26882772288536 -8.928142389875726 14.499833580889373
  endloop
endfacet
facet normal -5.025129633386073e-06 7.1633014502186426e-06 -0.9999999999617177
  outer loop
    vertex -135.26882772288536 -8.928142389875726 14.499833580889373
    vertex -16.269053743138564 2.0979253436671654 14.49902826563458
    vertex -16.268830778787517 -8.903189211540802 14.499011002060685
  endloop
endfacet
facet normal -5.025129633386073e-06 7.1633014502186426e-06 -0.9999999999617177
  outer loop
    vertex -16.268830778787517 -8.903189211540802 14.499011002060685
    vertex -16.269053743138564 2.0979253436671654 14.49902826563458
    vertex -16.268830778787517 -6.103189149953698 14.499011002060685
  endloop
endfacet
facet normal -5.025129633386073e-06 7.1633014502186426e-06 -0.9999999999617177
  outer loop
    vertex -152.46793071302994 -2.7317487434495473 14.499967917715443
    vertex -149.0672178400122 -6.131035720710196 14.499928961258044
    vertex -149.10010833444434 -115.73356611064625 14.498411425415377
  endloop
endfacet
facet normal -5.025129633386073e-06 7.1633014502186426e-06 -0.9999999999617177
  outer loop
    vertex -149.0672178400122 -6.131035720710196 14.499928961258044
    vertex -152.46793071302994 -2.7317487434495473 14.499967917715443
    vertex -135.26882772288536 -2.7280763459333364 14.499026451337404
  endloop
endfacet
facet normal -5.025129633386073e-06 7.1633014502186426e-06 -0.9999999999617177
  outer loop
    vertex -149.0672178400122 -6.131035720710196 14.499928961258044
    vertex -135.26882772288536 -2.7280763459333364 14.499026451337404
    vertex -135.26882772288536 -6.1281423282886065 14.499833580889373
  endloop
endfacet
facet normal -5.025129633386073e-06 7.1633014502186426e-06 -0.9999999999617177
  outer loop
    vertex -16.301833138497845 -123.95612633738696 14.498668698098175
    vertex -135.30192234592528 -123.92802768700184 14.49949140183877
    vertex -135.30087032156257 -119.13103710690953 14.498314271138806
  endloop
endfacet
facet normal 0.9999999600555942 -0.0002825615079573458 -6.9140709038981095e-06
  outer loop
    vertex -152.50092145214873 -119.13285280329862 -0.001565130414198651
    vertex -152.46793071302994 -2.7317487434495473 14.499967917715443
    vertex -152.5008212068906 -119.13285308862102 14.498434869239317
  endloop
endfacet
facet normal 0.9999999600555942 -0.0002825615079573458 -6.9140709038981095e-06
  outer loop
    vertex -152.46793071302994 -2.7317487434495473 14.499967917715443
    vertex -152.50092145214873 -119.13285280329862 -0.001565130414198651
    vertex -152.4680309570418 -2.731682856829226 -3.208178839092246e-05
  endloop
endfacet
facet normal 6.91346607190816e-06 -1.9677398765915046e-08 0.9999999999761018
  outer loop
    vertex 3.697979879037398 -120.46560660887086 20.29735496804103
    vertex -152.3004440097542 -112.93289507520515 20.298433606076077
    vertex -152.30201668757027 -120.43289491031746 20.298433469368266
  endloop
endfacet
facet normal 6.91346607190816e-06 -1.9677398765915046e-08 0.9999999999761018
  outer loop
    vertex -152.3004440097542 -112.93289507520515 20.298433606076077
    vertex 3.697979879037398 -120.46560660887086 20.29735496804103
    vertex 3.6976266030672806 -112.96560636990459 20.297355118063916
  endloop
endfacet
facet normal -3.88314471340831e-05 1.2432180241740069e-05 -0.9999999991687798
  outer loop
    vertex -155.26905090374373 2.0677299009531533 -1.0907333855520092e-05
    vertex -152.4680309570418 -2.731682856829226 -3.208178839092246e-05
    vertex -152.50092145214873 -119.13285280329862 -0.001565130414198651
  endloop
endfacet
facet normal -3.88314471340831e-05 1.2432180241740069e-05 -0.9999999991687798
  outer loop
    vertex -152.4680309570418 -2.731682856829226 -3.208178839092246e-05
    vertex -155.26905090374373 2.0677299009531533 -1.0907333855520092e-05
    vertex -135.2690509099083 2.0677299053190183 -0.0009717251806585394
  endloop
endfacet
facet normal -3.88314471340831e-05 1.2432180241740069e-05 -0.9999999991687798
  outer loop
    vertex -152.4680309570418 -2.731682856829226 -3.208178839092246e-05
    vertex -135.2690509099083 2.0677299053190183 -0.0009717251806585394
    vertex -135.26882772288536 -2.7280763459333364 -0.0005530758475163698
  endloop
endfacet
facet normal -3.88314471340831e-05 1.2432180241740069e-05 -0.9999999991687798
  outer loop
    vertex -155.3019318911781 -123.93226556386763 -0.0015497980946672309
    vertex -152.50092145214873 -119.13285280329862 -0.001565130414198651
    vertex -135.30193233135657 -123.93436246757359 -0.0016880674543267604
  endloop
endfacet
facet normal -3.88314471340831e-05 1.2432180241740069e-05 -0.9999999991687798
  outer loop
    vertex -152.50092145214873 -119.13285280329862 -0.001565130414198651
    vertex -155.3019318911781 -123.93226556386763 -0.0015497980946672309
    vertex -155.26905090374373 2.0677299009531533 -1.0907333855520092e-05
  endloop
endfacet
facet normal -3.88314471340831e-05 1.2432180241740069e-05 -0.9999999991687798
  outer loop
    vertex -135.30193233135657 -123.93436246757359 -0.0016880674543267604
    vertex -152.50092145214873 -119.13285280329862 -0.001565130414198651
    vertex -135.30088030699386 -119.1373718874813 -0.0028651981542894282
  endloop
endfacet
facet normal -6.913466071913676e-06 1.9677398765990743e-08 -0.9999999999761018
  outer loop
    vertex -152.30041704723655 -112.93289515194702 24.19843360598286
    vertex 3.6980068415550775 -120.4656066856127 24.19735496794784
    vertex -152.3019897250526 -120.43289498705933 24.19843346927503
  endloop
endfacet
facet normal -6.913466071913676e-06 1.9677398765990743e-08 -0.9999999999761018
  outer loop
    vertex 3.6980068415550775 -120.4656066856127 24.19735496794784
    vertex -152.30041704723655 -112.93289515194702 24.19843360598286
    vertex 3.6995795193711505 -112.96560685050042 24.197355104655678
  endloop
endfacet
facet normal 0.999999977991075 -0.00020969037534228184 -6.913470038417549e-06
  outer loop
    vertex -152.30201668757027 -120.43289491031746 20.298433469368266
    vertex -152.30041704723655 -112.93289515194702 24.19843360598286
    vertex -152.3019897250526 -120.43289498705933 24.19843346927503
  endloop
endfacet
facet normal 0.999999977991075 -0.00020969037534228184 -6.913470038417549e-06
  outer loop
    vertex -152.30041704723655 -112.93289515194702 24.19843360598286
    vertex -152.30201668757027 -120.43289491031746 20.298433469368266
    vertex -152.3004440097542 -112.93289507520515 20.298433606076077
  endloop
endfacet
facet normal -0.00022177808456524123 0.9999999753882775 -6.158416368102986e-06
  outer loop
    vertex -155.26905090374373 2.0677299009531533 -1.0907333855520092e-05
    vertex -135.2689512224334 2.0703181042550463 14.499028253571177
    vertex -135.2690509099083 2.0677299053190183 -0.0009717251806585394
  endloop
endfacet
facet normal -0.00022177808456524123 0.9999999753882775 -6.158416368102986e-06
  outer loop
    vertex -135.2689512224334 2.0703181042550463 14.499028253571177
    vertex -155.26905090374373 2.0677299009531533 -1.0907333855520092e-05
    vertex -155.26889074136696 2.081490334284451 23.500132020589447
  endloop
endfacet
facet normal -0.00022177808456524123 0.9999999753882775 -6.158416368102986e-06
  outer loop
    vertex -135.2689512224334 2.0703181042550463 14.499028253571177
    vertex -155.26889074136696 2.081490334284451 23.500132020589447
    vertex -16.269053743138564 2.0979253436671654 14.49902826563458
  endloop
endfacet
facet normal -0.00022177808456524123 0.9999999753882775 -6.158416368102986e-06
  outer loop
    vertex -16.269053743138564 2.0979253436671654 14.49902826563458
    vertex -155.26889074136696 2.081490334284451 23.500132020589447
    vertex 3.7311080612646785 2.1009639206161554 23.498890015943925
  endloop
endfacet
facet normal -0.00022177808456524123 0.9999999753882775 -6.158416368102986e-06
  outer loop
    vertex -16.26905396298923 2.098973796362113 -0.0009717251806578812
    vertex 3.7311080612646785 2.1009639206161554 23.498890015943925
    vertex 3.7309455968315786 2.101070702380284 -0.0011099832519542246
  endloop
endfacet
facet normal -0.00022177808456524123 0.9999999753882775 -6.158416368102986e-06
  outer loop
    vertex 3.7311080612646785 2.1009639206161554 23.498890015943925
    vertex -16.26905396298923 2.098973796362113 -0.0009717251806578812
    vertex -16.269053743138564 2.0979253436671654 14.49902826563458
  endloop
endfacet
facet normal -0.9999999756009518 0.00022079466844890448 6.914513299822791e-06
  outer loop
    vertex -16.301833138497845 -123.95612633738696 14.498668698098175
    vertex -16.300881975929464 -119.16182238732698 -0.003687901086450304
    vertex -16.301934000292192 -123.95881296741929 -0.002510770386487636
  endloop
endfacet
facet normal -0.9999999756009518 0.00022079466844890448 6.914513299822791e-06
  outer loop
    vertex -16.300881975929464 -119.16182238732698 -0.003687901086450304
    vertex -16.301833138497845 -123.95612633738696 14.498668698098175
    vertex -16.30078111413512 -119.15913575729465 14.497491567398212
  endloop
endfacet
facet normal 0.999999975625116 -0.00022079270182660747 -5.921420217001567e-07
  outer loop
    vertex -135.30088030699386 -119.1373718874813 -0.0028651981542894282
    vertex -135.30192234592528 -123.92802768700184 14.49949140183877
    vertex -135.30193233135657 -123.93436246757359 -0.0016880674543267604
  endloop
endfacet
facet normal 0.999999975625116 -0.00022079270182660747 -5.921420217001567e-07
  outer loop
    vertex -135.30192234592528 -123.92802768700184 14.49949140183877
    vertex -135.30088030699386 -119.1373718874813 -0.0028651981542894282
    vertex -135.30087032156257 -119.13103710690953 14.498314271138806
  endloop
endfacet
facet normal 0.0002639786156547608 0.9999999608670782 -9.263440362270102e-05
  outer loop
    vertex -16.30078111413512 -119.15913575729465 14.497491567398212
    vertex 0.899075171682222 -119.16501930687618 -0.0026256567192005946
    vertex -16.300881975929464 -119.16182238732698 -0.003687901086450304
  endloop
endfacet
facet normal 0.0002639786156547608 0.9999999608670782 -9.263440362270102e-05
  outer loop
    vertex 0.899075171682222 -119.16501930687618 -0.0026256567192005946
    vertex -16.30078111413512 -119.15913575729465 14.497491567398212
    vertex 0.8991754169404439 -119.16501959219852 14.497374342934291
  endloop
endfacet
facet normal -0.00020969516328819902 -0.999999978013969 -1.3670771412095603e-08
  outer loop
    vertex -2.5001115609526425 -115.76430671967145 14.497397910706713
    vertex -16.300881975929464 -115.7614125665775 -0.0025066784248313754
    vertex -2.500211806210774 -115.76430643434907 -0.00260208894675924
  endloop
endfacet
facet normal -0.00020969516328819902 -0.999999978013969 -1.3670771412095603e-08
  outer loop
    vertex -16.300881975929464 -115.7614125665775 -0.0025066784248313754
    vertex -2.5001115609526425 -115.76430671967145 14.497397910706713
    vertex -16.300881975957175 -115.76141269872845 14.49749332192168
  endloop
endfacet
facet normal 1.0 -7.251341882033743e-14 -6.608769904770785e-22
  outer loop
    vertex -135.30088030699386 -115.73645941171257 -0.0016839754828326327
    vertex -135.30088030699366 -112.9364593501545 14.49831605206547
    vertex -135.30088030699386 -115.73645967601445 14.498316024863659
  endloop
endfacet
facet normal 1.0 -7.251341882033743e-14 -6.608769904770785e-22
  outer loop
    vertex -135.30088030699366 -112.9364593501545 14.49831605206547
    vertex -135.30088030699386 -115.73645941171257 -0.0016839754828326327
    vertex -135.30088030699366 -112.9364593501545 -0.0016839479345287962
  endloop
endfacet
facet normal -0.9999999780149629 0.00020969042415613245 -3.5297321414503516e-17
  outer loop
    vertex -16.300294842741888 -112.9614126284137 14.497513088138867
    vertex -16.300881975929464 -115.7614125665775 -0.0025066784248313754
    vertex -16.300881975957175 -115.76141269872845 14.49749332192168
  endloop
endfacet
facet normal -0.9999999780149629 0.00020969042415613245 -3.5297321414503516e-17
  outer loop
    vertex -16.300881975929464 -115.7614125665775 -0.0025066784248313754
    vertex -16.300294842741888 -112.9614126284137 14.497513088138867
    vertex -16.300294842741888 -112.9614126284137 -0.002486911861131835
  endloop
endfacet
facet normal 7.046654718613093e-06 1.4833620975509337e-05 -0.9999999998651543
  outer loop
    vertex 3.7309455968315786 2.101070702380284 -0.0011099832519542246
    vertex -16.268830778787514 -2.7031231675989793 -0.0009649106757605787
    vertex -16.26905396298923 2.098973796362113 -0.0009717251806578812
  endloop
endfacet
facet normal 7.046654718613093e-06 1.4833620975509337e-05 -0.9999999998651543
  outer loop
    vertex -16.268830778787514 -2.7031231675989793 -0.0009649106757605787
    vertex 3.7309455968315786 2.101070702380284 -0.0011099832519542246
    vertex 0.9319656667838229 -2.69951632262223 -0.0010924481143385816
  endloop
endfacet
facet normal 7.046654718613093e-06 1.4833620975509337e-05 -0.9999999998651543
  outer loop
    vertex 0.9319656667838229 -2.69951632262223 -0.0010924481143385816
    vertex 3.7309455968315786 2.101070702380284 -0.0011099832519542246
    vertex 3.698064609402747 -123.96560633354719 -0.0026490398319937176
  endloop
endfacet
facet normal 7.046654718613093e-06 1.4833620975509337e-05 -0.9999999998651543
  outer loop
    vertex -16.300881975929464 -119.16182238732698 -0.003687901086450304
    vertex 3.698064609402747 -123.96560633354719 -0.0026490398319937176
    vertex -16.301934000292192 -123.95881296741929 -0.002510770386487636
  endloop
endfacet
facet normal 7.046654718613093e-06 1.4833620975509337e-05 -0.9999999998651543
  outer loop
    vertex 3.698064609402747 -123.96560633354719 -0.0026490398319937176
    vertex -16.300881975929464 -119.16182238732698 -0.003687901086450304
    vertex 0.899075171682222 -119.16501930687618 -0.0026256567192005946
  endloop
endfacet
facet normal 7.046654718613093e-06 1.4833620975509337e-05 -0.9999999998651543
  outer loop
    vertex 3.698064609402747 -123.96560633354719 -0.0026490398319937176
    vertex 0.899075171682222 -119.16501930687618 -0.0026256567192005946
    vertex 0.9319656667838229 -2.69951632262223 -0.0010924481143385816
  endloop
endfacet
facet normal 0.00020873263512291421 -0.9999999782095328 -3.4090138626173714e-06
  outer loop
    vertex 0.9320659107957971 -2.6995822092426387 14.498907551389472
    vertex -16.268830778787514 -2.7031231675989793 -0.0009649106757605787
    vertex 0.9319656667838229 -2.69951632262223 -0.0010924481143385816
  endloop
endfacet
facet normal 0.00020873263512291421 -0.9999999782095328 -3.4090138626173714e-06
  outer loop
    vertex -16.268830778787514 -2.7031231675989793 -0.0009649106757605787
    vertex 0.9320659107957971 -2.6995822092426387 14.498907551389472
    vertex -16.26883077187741 -2.703156121417836 14.499026451337404
  endloop
endfacet
facet normal 0.9999999999078877 -1.3130709024748078e-05 -3.4364269055884502e-06
  outer loop
    vertex -135.2690509099083 2.0677299053190183 -0.0009717251806585394
    vertex -135.26882772288536 -2.7280763459333364 14.499026451337404
    vertex -135.26882772288536 -2.7280763459333364 -0.0005530758475163698
  endloop
endfacet
facet normal 0.9999999999078877 -1.3130709024748078e-05 -3.4364269055884502e-06
  outer loop
    vertex -135.26882772288536 -2.7280763459333364 14.499026451337404
    vertex -135.2690509099083 2.0677299053190183 -0.0009717251806585394
    vertex -135.2689512224334 2.0703181042550463 14.499028253571177
  endloop
endfacet
facet normal -0.9999999999999996 2.8018725549985586e-08 7.820386198107798e-09
  outer loop
    vertex -16.269053743138564 2.0979253436671654 14.49902826563458
    vertex -16.268830778787514 -2.7031231675989793 -0.0009649106757605787
    vertex -16.26883077187741 -2.703156121417836 14.499026451337404
  endloop
endfacet
facet normal -0.9999999999999996 2.8018725549985586e-08 7.820386198107798e-09
  outer loop
    vertex -16.268830778787514 -2.7031231675989793 -0.0009649106757605787
    vertex -16.269053743138564 2.0979253436671654 14.49902826563458
    vertex -16.26905396298923 2.098973796362113 -0.0009717251806578812
  endloop
endfacet
facet normal -7.309878558027864e-06 1.4071510616915915e-05 -0.9999999998742792
  outer loop
    vertex -149.06731808402404 -6.130969834089788 -7.103824572031459e-05
    vertex -146.26673101212702 -8.930382638892697 -0.00010312003427796756
    vertex -146.2996215082761 -112.93415301993294 -0.0016078809167203777
  endloop
endfacet
facet normal -7.309878558027864e-06 1.4071510616915915e-05 -0.9999999998742792
  outer loop
    vertex -146.26673101212702 -8.930382638892697 -0.00010312003427796756
    vertex -149.06731808402404 -6.130969834089788 -7.103824572031459e-05
    vertex -135.26882772288536 -6.128076420592592 -0.00017860405725191524
  endloop
endfacet
facet normal -7.309878558027864e-06 1.4071510616915915e-05 -0.9999999998742792
  outer loop
    vertex -146.26673101212702 -8.930382638892697 -0.00010312003427796756
    vertex -135.26882772288536 -6.128076420592592 -0.00017860405725191524
    vertex -135.26882772288536 -8.928076482177287 -0.00017860405725191524
  endloop
endfacet
facet normal -7.309878558027864e-06 1.4071510616915915e-05 -0.9999999998742792
  outer loop
    vertex -149.1002085797024 -115.73356582532392 -0.0015885742380697563
    vertex -146.2996215082761 -112.93415301993294 -0.0016078809167203777
    vertex -135.30088030699386 -115.73645941171257 -0.0016839754828326327
  endloop
endfacet
facet normal -7.309878558027864e-06 1.4071510616915915e-05 -0.9999999998742792
  outer loop
    vertex -146.2996215082761 -112.93415301993294 -0.0016078809167203777
    vertex -149.1002085797024 -115.73356582532392 -0.0015885742380697563
    vertex -149.0963670549778 -102.93226643169758 -0.0014113299638536352
  endloop
endfacet
facet normal -7.309878558027864e-06 1.4071510616915915e-05 -0.9999999998742792
  outer loop
    vertex -146.2996215082761 -112.93415301993294 -0.0016078809167203777
    vertex -149.0963670549778 -102.93226643169758 -0.0014113299638536352
    vertex -149.07115960879122 -18.932269369538908 -0.00024828252190008614
  endloop
endfacet
facet normal -7.309878558027864e-06 1.4071510616915915e-05 -0.9999999998742792
  outer loop
    vertex -146.2996215082761 -112.93415301993294 -0.0016078809167203777
    vertex -149.07115960879122 -18.932269369538908 -0.00024828252190008614
    vertex -149.06731808402404 -6.130969834089788 -7.103824572031459e-05
  endloop
endfacet
facet normal -7.309878558027864e-06 1.4071510616915915e-05 -0.9999999998742792
  outer loop
    vertex -135.30088030699386 -115.73645941171257 -0.0016839754828326327
    vertex -146.2996215082761 -112.93415301993294 -0.0016078809167203777
    vertex -135.30088030699366 -112.9364593501545 -0.0016839479345287962
  endloop
endfacet
facet normal -0.0002096905435959407 0.9999999780046076 4.545354426321304e-06
  outer loop
    vertex -149.06731808402404 -6.130969834089788 -7.103824572031459e-05
    vertex -135.26882772288536 -6.1281423282886065 14.499833580889373
    vertex -135.26882772288536 -6.128076420592592 -0.00017860405725191524
  endloop
endfacet
facet normal -0.0002096905435959407 0.9999999780046076 4.545354426321304e-06
  outer loop
    vertex -135.26882772288536 -6.1281423282886065 14.499833580889373
    vertex -149.06731808402404 -6.130969834089788 -7.103824572031459e-05
    vertex -149.0672178400122 -6.131035720710196 14.499928961258044
  endloop
endfacet
facet normal 1.0 -0.0 -0.0
  outer loop
    vertex -135.26882772288536 -8.928076482177287 -0.00017860405725191524
    vertex -135.26882772288536 -6.1281423282886065 14.499833580889373
    vertex -135.26882772288536 -8.928142389875726 14.499833580889373
  endloop
endfacet
facet normal 1.0 -0.0 -0.0
  outer loop
    vertex -135.26882772288536 -6.1281423282886065 14.499833580889373
    vertex -135.26882772288536 -8.928076482177287 -0.00017860405725191524
    vertex -135.26882772288536 -6.128076420592592 -0.00017860405725191524
  endloop
endfacet
facet normal -1.0 7.852597627734755e-12 1.5163997386497361e-12
  outer loop
    vertex -16.268830778787517 -6.103189149953698 14.499011002060685
    vertex -16.268830778831493 -8.90312330384239 -0.000995359603012313
    vertex -16.268830778787517 -8.903189211540802 14.499011002060685
  endloop
endfacet
facet normal -1.0 7.852597627734755e-12 1.5163997386497361e-12
  outer loop
    vertex -16.268830778831493 -8.90312330384239 -0.000995359603012313
    vertex -16.268830778787517 -6.103189149953698 14.499011002060685
    vertex -16.268830778787517 -6.103123242313107 -0.0009889981360347274
  endloop
endfacet
facet normal 0.0002096905436150281 -0.9999999780046076 -4.54535476329283e-06
  outer loop
    vertex -5.266613131238065 -8.900895786150823 17.49892222713774
    vertex -16.268830778831493 -8.90312330384239 -0.000995359603012313
    vertex -5.266734115390364 -8.900816267815904 -0.0010777722634251112
  endloop
endfacet
facet normal 0.0002096905436150281 -0.9999999780046076 -4.54535476329283e-06
  outer loop
    vertex -16.268830778831493 -8.90312330384239 -0.000995359603012313
    vertex -5.266613131238065 -8.900895786150823 17.49892222713774
    vertex -16.268830778787517 -8.903189211540802 14.499011002060685
  endloop
endfacet
facet normal 0.0002096905436150281 -0.9999999780046076 -4.54535476329283e-06
  outer loop
    vertex -16.268830778787517 -8.903189211540802 14.499011002060685
    vertex -5.266613131238065 -8.900895786150823 17.49892222713774
    vertex -135.26882772288536 -8.928142389875726 14.499833580889373
  endloop
endfacet
facet normal 0.0002096905436150281 -0.9999999780046076 -4.54535476329283e-06
  outer loop
    vertex 3.7324928275895024 -8.899054211951526 27.498860021607587
    vertex -152.26752655316722 -8.931750946767458 24.199938360357155
    vertex 3.732470013435071 -8.899039217065493 24.19886002172054
  endloop
endfacet
facet normal 0.0002096905436150281 -0.9999999780046076 -4.54535476329283e-06
  outer loop
    vertex 3.730517097466399 -8.899021899690888 20.298860035167028
    vertex -5.266613131238065 -8.900895786150823 17.49892222713774
    vertex 3.7304977400020074 -8.899009176757284 17.498860035262847
  endloop
endfacet
facet normal 0.0002096905436150281 -0.9999999780046076 -4.54535476329283e-06
  outer loop
    vertex -5.266613131238065 -8.900895786150823 17.49892222713774
    vertex 3.730517097466399 -8.899021899690888 20.298860035167028
    vertex -146.26661002797482 -8.930462157227735 17.49989687936687
  endloop
endfacet
facet normal 0.0002096905436150281 -0.9999999780046076 -4.54535476329283e-06
  outer loop
    vertex -146.26661002797482 -8.930462157227735 17.49989687936687
    vertex 3.730517097466399 -8.899021899690888 20.298860035167028
    vertex -155.2777883376691 -8.932351716430512 17.49995916848202
  endloop
endfacet
facet normal 0.0002096905436150281 -0.9999999780046076 -4.54535476329283e-06
  outer loop
    vertex -155.2777883376691 -8.932351716430512 17.49995916848202
    vertex 3.730517097466399 -8.899021899690888 20.298860035167028
    vertex -152.26755351534968 -8.931733225538505 20.299938360490636
  endloop
endfacet
facet normal 0.0002096905436150281 -0.9999999780046076 -4.54535476329283e-06
  outer loop
    vertex -155.2777883376691 -8.932351716430512 17.49995916848202
    vertex -152.26755351534968 -8.931733225538505 20.299938360490636
    vertex -155.27026686535126 -8.932395592793938 27.499959116626044
  endloop
endfacet
facet normal 0.0002096905436150281 -0.9999999780046076 -4.54535476329283e-06
  outer loop
    vertex -155.27026686535126 -8.932395592793938 27.499959116626044
    vertex -152.26755351534968 -8.931733225538505 20.299938360490636
    vertex -152.26752655316722 -8.931750946767458 24.199938360357155
  endloop
endfacet
facet normal 0.0002096905436150281 -0.9999999780046076 -4.54535476329283e-06
  outer loop
    vertex -155.27026686535126 -8.932395592793938 27.499959116626044
    vertex -152.26752655316722 -8.931750946767458 24.199938360357155
    vertex 3.7324928275895024 -8.899054211951526 27.498860021607587
  endloop
endfacet
facet normal 0.0002096905436150281 -0.9999999780046076 -4.54535476329283e-06
  outer loop
    vertex -135.26882772288536 -8.928142389875726 14.499833580889373
    vertex -146.26673101212702 -8.930382638892697 -0.00010312003427796756
    vertex -135.26882772288536 -8.928076482177287 -0.00017860405725191524
  endloop
endfacet
facet normal 0.0002096905436150281 -0.9999999780046076 -4.54535476329283e-06
  outer loop
    vertex -146.26673101212702 -8.930382638892697 -0.00010312003427796756
    vertex -135.26882772288536 -8.928142389875726 14.499833580889373
    vertex -146.26661002797482 -8.930462157227735 17.49989687936687
  endloop
endfacet
facet normal 0.0002096905436150281 -0.9999999780046076 -4.54535476329283e-06
  outer loop
    vertex -146.26661002797482 -8.930462157227735 17.49989687936687
    vertex -135.26882772288536 -8.928142389875726 14.499833580889373
    vertex -5.266613131238065 -8.900895786150823 17.49892222713774
  endloop
endfacet
facet normal -7.370979621680381e-06 1.4091171149622277e-05 -0.9999999998735538
  outer loop
    vertex -16.268830778787517 -6.103123242313107 -0.0009889981360347274
    vertex -5.266734115390364 -8.900816267815904 -0.0010777722634251112
    vertex -16.268830778831493 -8.90312330384239 -0.000995359603012313
  endloop
endfacet
facet normal -7.370979621680381e-06 1.4091171149622277e-05 -0.9999999998735538
  outer loop
    vertex -5.266734115390364 -8.900816267815904 -0.0010777722634251112
    vertex -16.268830778787517 -6.103123242313107 -0.0009889981360347274
    vertex -2.4673213105374376 -6.100229195792977 -0.001084400066995944
  endloop
endfacet
facet normal -7.370979621680381e-06 1.4091171149622277e-05 -0.9999999998735538
  outer loop
    vertex -5.266734115390364 -8.900816267815904 -0.0010777722634251112
    vertex -2.4673213105374376 -6.100229195792977 -0.001084400066995944
    vertex -2.500211806210774 -115.76430643434907 -0.00260208894675924
  endloop
endfacet
facet normal -7.370979621680381e-06 1.4091171149622277e-05 -0.9999999998735538
  outer loop
    vertex -16.300294842741888 -112.9614126284137 -0.002486911861131835
    vertex -2.500211806210774 -115.76430643434907 -0.00260208894675924
    vertex -16.300881975929464 -115.7614125665775 -0.0025066784248313754
  endloop
endfacet
facet normal -7.370979621680381e-06 1.4091171149622277e-05 -0.9999999998735538
  outer loop
    vertex -2.500211806210774 -115.76430643434907 -0.00260208894675924
    vertex -16.300294842741888 -112.9614126284137 -0.002486911861131835
    vertex -5.29962461153454 -112.9637193628562 -0.002582680193107173
  endloop
endfacet
facet normal -7.370979621680381e-06 1.4091171149622277e-05 -0.9999999998735538
  outer loop
    vertex -2.500211806210774 -115.76430643434907 -0.00260208894675924
    vertex -5.29962461153454 -112.9637193628562 -0.002582680193107173
    vertex -5.266734115390364 -8.900816267815904 -0.0010777722634251112
  endloop
endfacet
facet normal 0.9999999499711915 -0.00031624327567124637 -6.914146891387639e-06
  outer loop
    vertex -146.2996215082761 -112.93415301993294 -0.0016078809167203777
    vertex -146.26661002797482 -8.930462157227735 17.49989687936687
    vertex -146.29950052261975 -112.93415336428738 17.498392118665073
  endloop
endfacet
facet normal 0.9999999499711915 -0.00031624327567124637 -6.914146891387639e-06
  outer loop
    vertex -146.26661002797482 -8.930462157227735 17.49989687936687
    vertex -146.2996215082761 -112.93415301993294 -0.0016078809167203777
    vertex -146.26673101212702 -8.930382638892697 -0.00010312003427796756
  endloop
endfacet
facet normal 0.00020969037626156794 0.9999999780149729 1.4571187237315084e-08
  outer loop
    vertex -146.2996215082761 -112.93415301993294 -0.0016078809167203777
    vertex -135.30088030699366 -112.9364593501545 14.49831605206547
    vertex -135.30088030699366 -112.9364593501545 -0.0016839479345287962
  endloop
endfacet
facet normal 0.00020969037626156794 0.9999999780149729 1.4571187237315084e-08
  outer loop
    vertex -135.30088030699366 -112.9364593501545 14.49831605206547
    vertex -146.2996215082761 -112.93415301993294 -0.0016078809167203777
    vertex -146.29950052261975 -112.93415336428738 17.498392118665073
  endloop
endfacet
facet normal 0.00020969037626156794 0.9999999780149729 1.4571187237315084e-08
  outer loop
    vertex -135.30088030699366 -112.9364593501545 14.49831605206547
    vertex -146.29950052261975 -112.93415336428738 17.498392118665073
    vertex -5.29950362587815 -112.96371970721079 17.497417319388706
  endloop
endfacet
facet normal 0.00020969037626156794 0.9999999780149729 1.4571187237315084e-08
  outer loop
    vertex -16.300294842741888 -112.9614126284137 -0.002486911861131835
    vertex -5.29950362587815 -112.96371970721079 17.497417319388706
    vertex -5.29962461153454 -112.9637193628562 -0.002582680193107173
  endloop
endfacet
facet normal 0.00020969037626156794 0.9999999780149729 1.4571187237315084e-08
  outer loop
    vertex -5.29950362587815 -112.96371970721079 17.497417319388706
    vertex -16.300294842741888 -112.9614126284137 -0.002486911861131835
    vertex -16.300294842741888 -112.9614126284137 14.497513088138867
  endloop
endfacet
facet normal 0.00020969037626156794 0.9999999780149729 1.4571187237315084e-08
  outer loop
    vertex -5.29950362587815 -112.96371970721079 17.497417319388706
    vertex -16.300294842741888 -112.9614126284137 14.497513088138867
    vertex -135.30088030699366 -112.9364593501545 14.49831605206547
  endloop
endfacet
facet normal -0.9999999482989481 0.0002445654501956422 0.00020878180395549897
  outer loop
    vertex -149.10010833444434 -115.73356611064625 14.498411425415377
    vertex -149.07115960879122 -102.93226643169758 7.999751717478099
    vertex -149.1002085797024 -115.73356582532392 -0.0015885742380697563
  endloop
endfacet
facet normal -0.9999999482989481 0.0002445654501956422 0.00020878180395549897
  outer loop
    vertex -149.07115960879122 -102.93226643169758 7.999751717478099
    vertex -149.10010833444434 -115.73356611064625 14.498411425415377
    vertex -149.0672178400122 -6.131035720710196 14.499928961258044
  endloop
endfacet
facet normal -0.9999999482989481 0.0002445654501956422 0.00020878180395549897
  outer loop
    vertex -149.07115960879122 -102.93226643169758 7.999751717478099
    vertex -149.0672178400122 -6.131035720710196 14.499928961258044
    vertex -149.07115960879122 -18.932269369538908 7.999751717478099
  endloop
endfacet
facet normal -0.9999999482989481 0.0002445654501956422 0.00020878180395549897
  outer loop
    vertex -149.07115960879122 -18.932269369538908 7.999751717478099
    vertex -149.0672178400122 -6.131035720710196 14.499928961258044
    vertex -149.07115960879122 -18.932269369538908 -0.00024828252190008614
  endloop
endfacet
facet normal -0.9999999482989481 0.0002445654501956422 0.00020878180395549897
  outer loop
    vertex -149.07115960879122 -18.932269369538908 -0.00024828252190008614
    vertex -149.0672178400122 -6.131035720710196 14.499928961258044
    vertex -149.06731808402404 -6.130969834089788 -7.103824572031459e-05
  endloop
endfacet
facet normal -0.9999999482989481 0.0002445654501956422 0.00020878180395549897
  outer loop
    vertex -149.0963670549778 -102.93226643169758 -0.0014113299638536352
    vertex -149.1002085797024 -115.73356582532392 -0.0015885742380697563
    vertex -149.07115960879122 -102.93226643169758 7.999751717478099
  endloop
endfacet
facet normal -0.9999987477017727 0.0001500332331083676 0.0015754633970614725
  outer loop
    vertex -149.07115960879122 -18.932269369538908 7.999751717478099
    vertex -149.0963670549778 -102.93226643169758 -0.0014113299638536352
    vertex -149.07115960879122 -102.93226643169758 7.999751717478099
  endloop
endfacet
facet normal -0.9999987477017727 0.0001500332331083676 0.0015754633970614725
  outer loop
    vertex -149.0963670549778 -102.93226643169758 -0.0014113299638536352
    vertex -149.07115960879122 -18.932269369538908 7.999751717478099
    vertex -149.07115960879122 -18.932269369538908 -0.00024828252190008614
  endloop
endfacet
facet normal 9.881003495936104e-06 6.678188960663598e-05 0.9999999977212726
  outer loop
    vertex -155.30125413857704 -119.94706812856501 27.499391935841736
    vertex 3.69960233380921 -112.96560691543584 27.497355104576787
    vertex -155.303157359137 -112.93226556634156 27.49845436541736
  endloop
endfacet
facet normal 9.881003495936104e-06 6.678188960663598e-05 0.9999999977212726
  outer loop
    vertex 3.69960233380921 -112.96560691543584 27.497355104576787
    vertex -155.30125413857704 -119.94706812856501 27.499391935841736
    vertex 3.698744767568727 -119.96560690469317 27.49735246680757
  endloop
endfacet
facet normal -0.00018384405831894013 -0.9999999570607158 -0.00022821027337296422
  outer loop
    vertex 3.6982270758556273 -123.96560679596612 23.497350959606468
    vertex -16.301934000292192 -123.95881296741929 -0.002510770386487636
    vertex 3.698064609402747 -123.96560633354719 -0.0026490398319937176
  endloop
endfacet
facet normal -0.00018384405831894013 -0.9999999570607158 -0.00022821027337296422
  outer loop
    vertex -16.301934000292192 -123.95881296741929 -0.002510770386487636
    vertex 3.6982270758556273 -123.96560679596612 23.497350959606468
    vertex -16.301833138497845 -123.95612633738696 14.498668698098175
  endloop
endfacet
facet normal -0.00018384405831894013 -0.9999999570607158 -0.00022821027337296422
  outer loop
    vertex -16.301833138497845 -123.95612633738696 14.498668698098175
    vertex 3.6982270758556273 -123.96560679596612 23.497350959606468
    vertex -135.30192234592528 -123.92802768700184 14.49949140183877
  endloop
endfacet
facet normal -0.00018384405831894013 -0.9999999570607158 -0.00022821027337296422
  outer loop
    vertex -135.30192234592528 -123.92802768700184 14.49949140183877
    vertex -155.3019318911781 -123.93226556386763 -0.0015497980946672309
    vertex -135.30193233135657 -123.93436246757359 -0.0016880674543267604
  endloop
endfacet
facet normal -0.00018384405831894013 -0.9999999570607158 -0.00022821027337296422
  outer loop
    vertex -155.3019318911781 -123.93226556386763 -0.0015497980946672309
    vertex -135.30192234592528 -123.92802768700184 14.49949140183877
    vertex -155.30177183029014 -123.94706801983797 23.499390428640634
  endloop
endfacet
facet normal -0.00018384405831894013 -0.9999999570607158 -0.00022821027337296422
  outer loop
    vertex -155.30177183029014 -123.94706801983797 23.499390428640634
    vertex -135.30192234592528 -123.92802768700184 14.49949140183877
    vertex 3.6982270758556273 -123.96560679596612 23.497350959606468
  endloop
endfacet
facet normal -0.00011102428212967742 -0.9761137932461861 0.2172598681490691
  outer loop
    vertex 3.6982921473731527 -123.88324822016523 24.000133139793824
    vertex -155.30177183029014 -123.94706801983797 23.499390428640634
    vertex 3.6982270758556273 -123.96560679596612 23.497350959606468
  endloop
endfacet
facet normal -0.00011298912592641736 -0.9868479324884099 0.16165130799597185
  outer loop
    vertex -155.30177183029014 -123.94706801983797 23.499390428640634
    vertex 3.6982921473731527 -123.88324822016523 24.000133139793824
    vertex -155.3017644643717 -123.93226603132105 23.58975350692199
  endloop
endfacet
facet normal -0.00011298912592641736 -0.9868479324884099 0.16165130799597185
  outer loop
    vertex -155.3017644643717 -123.93226603132105 23.58975350692199
    vertex 3.6982921473731527 -123.88324822016523 24.000133139793824
    vertex -155.3017067587726 -123.86470944403708 24.00217260882799
  endloop
endfacet
facet normal -0.00010603404873746062 -0.9452995058463992 0.3262036679795832
  outer loop
    vertex 3.698355596965008 -123.74458458868135 24.490383334321127
    vertex -155.3017067587726 -123.86470944403708 24.00217260882799
    vertex 3.6982921473731527 -123.88324822016523 24.000133139793824
  endloop
endfacet
facet normal -0.00011102453060062413 -0.9761152193864323 0.21725346063004558
  outer loop
    vertex -155.3017067587726 -123.86470944403708 24.00217260882799
    vertex 3.698355596965008 -123.74458458868135 24.490383334321127
    vertex -155.30164330918075 -123.72604581255318 24.492422803355293
  endloop
endfacet
facet normal -9.968464684815974e-05 -0.9023681271136204 0.43096606969972495
  outer loop
    vertex 3.6984166113086476 -123.55139334805713 24.961817317800822
    vertex -155.30164330918075 -123.72604581255318 24.492422803355293
    vertex 3.698355596965008 -123.74458458868135 24.490383334321127
  endloop
endfacet
facet normal -0.00010603430970705833 -0.9453012030211196 0.32619874972713975
  outer loop
    vertex -155.30164330918075 -123.72604581255318 24.492422803355293
    vertex 3.6984166113086476 -123.55139334805713 24.961817317800822
    vertex -155.30158229483712 -123.53285457192898 24.96385678683499
  endloop
endfacet
facet normal -9.205746268702863e-05 -0.8478699689587582 0.5302042127928615
  outer loop
    vertex 3.6984744082975243 -123.30615090179542 25.40839205865311
    vertex -155.30158229483712 -123.53285457192898 24.96385678683499
    vertex 3.6984166113086476 -123.55139334805713 24.961817317800822
  endloop
endfacet
facet normal -9.968489176958533e-05 -0.902369834437453 0.43096249484177396
  outer loop
    vertex -155.30158229483712 -123.53285457192898 24.96385678683499
    vertex 3.6984744082975243 -123.30615090179542 25.40839205865311
    vertex -155.30152449784825 -123.28761212566727 25.410431527687276
  endloop
endfacet
facet normal -8.325026361302054e-05 -0.7825036052467986 0.6226460478033694
  outer loop
    vertex 3.698528247066445 -123.01200086681693 25.824383181130198
    vertex -155.30152449784825 -123.28761212566727 25.410431527687276
    vertex 3.6984744082975243 -123.30615090179542 25.40839205865311
  endloop
endfacet
facet normal -9.205765675715909e-05 -0.8478713844127366 0.5302019492791566
  outer loop
    vertex -155.30152449784825 -123.28761212566727 25.410431527687276
    vertex 3.698528247066445 -123.01200086681693 25.824383181130198
    vertex -155.3014706590793 -122.99346209068877 25.826422650164364
  endloop
endfacet
facet normal -7.337594227270276e-05 -0.7071069173639234 0.7071066412020613
  outer loop
    vertex 3.698577437488283 -122.67271377730644 26.204458342681185
    vertex -155.3014706590793 -122.99346209068877 25.826422650164364
    vertex 3.698528247066445 -123.01200086681693 25.824383181130198
  endloop
endfacet
facet normal -8.325037462770741e-05 -0.7825044417292234 0.6226449965617739
  outer loop
    vertex -155.3014706590793 -122.99346209068877 25.826422650164364
    vertex 3.698577437488283 -122.67271377730644 26.204458342681185
    vertex -155.30142146865748 -122.65417500117827 26.20649781171535
  endloop
endfacet
facet normal -7.337594227270276e-05 -0.7071069173639234 0.7071066412020613
  outer loop
    vertex 3.698577437488283 -122.67271377730644 26.204458342681185
    vertex -155.30137755712545 -122.2740999763516 26.545785055110926
    vertex -155.30142146865748 -122.65417500117827 26.20649781171535
  endloop
endfacet
facet normal -6.256093627844225e-05 -0.6226453032437521 0.7825041996274685
  outer loop
    vertex -155.30137755712545 -122.2740999763516 26.545785055110926
    vertex 3.698577437488283 -122.67271377730644 26.204458342681185
    vertex 3.6986213490203035 -122.29263875247976 26.54374558607676
  endloop
endfacet
facet normal -6.256106957848651e-05 -0.6226463544849945 0.7825033631446316
  outer loop
    vertex 3.6986213490203035 -122.29263875247976 26.54374558607676
    vertex -155.30133948735903 -121.85810897168541 26.83993525916274
    vertex -155.30137755712545 -122.2740999763516 26.545785055110926
  endloop
endfacet
facet normal -5.094399030853974e-05 -0.5302022825500092 0.8478711794744942
  outer loop
    vertex -155.30133948735903 -121.85810897168541 26.83993525916274
    vertex 3.6986213490203035 -122.29263875247976 26.54374558607676
    vertex 3.69865941878672 -121.87664774781356 26.837895790128574
  endloop
endfacet
facet normal -5.094427238111565e-05 -0.5302045460631223 0.8478697640196161
  outer loop
    vertex 3.69865941878672 -121.87664774781356 26.837895790128574
    vertex -155.3013077473519 -121.41153432822048 27.085177887518757
    vertex -155.30133948735903 -121.85810897168541 26.83993525916274
  endloop
endfacet
facet normal -3.867401791245779e-05 -0.43096285042947 0.9023696692897133
  outer loop
    vertex -155.3013077473519 -121.41153432822048 27.085177887518757
    vertex 3.69865941878672 -121.87664774781356 26.837895790128574
    vertex 3.69869115879386 -121.43007310434865 27.08313841848459
  endloop
endfacet
facet normal -3.8674456626391303e-05 -0.43096642528670426 0.9023679619644559
  outer loop
    vertex 3.69869115879386 -121.43007310434865 27.08313841848459
    vertex -155.3012827439603 -120.94010042045629 27.27836932092409
    vertex -155.3013077473519 -121.41153432822048 27.085177887518757
  endloop
endfacet
facet normal -2.590830354732355e-05 -0.32619912307356436 0.9453010797808271
  outer loop
    vertex -155.3012827439603 -120.94010042045629 27.27836932092409
    vertex 3.69869115879386 -121.43007310434865 27.08313841848459
    vertex 3.698716162185468 -120.95863919658444 27.276329851889923
  endloop
endfacet
facet normal -2.5908898765609933e-05 -0.32620404132528535 0.9452993826041465
  outer loop
    vertex 3.698716162185468 -120.95863919658444 27.276329851889923
    vertex -155.3012647976878 -120.44985027900206 27.417033153404795
    vertex -155.3012827439603 -120.94010042045629 27.27836932092409
  endloop
endfacet
facet normal -1.2810486290369944e-05 -0.21725402994832863 0.9761150989033527
  outer loop
    vertex -155.3012647976878 -120.44985027900206 27.417033153404795
    vertex 3.698716162185468 -120.95863919658444 27.276329851889923
    vertex 3.6987341084579506 -120.46838905513022 27.414993684370625
  endloop
endfacet
facet normal -1.2811229877175854e-05 -0.21726025498494486 0.9761137133755212
  outer loop
    vertex 3.6987341084579506 -120.46838905513022 27.414993684370625
    vertex -155.30125413857704 -119.94706812856501 27.499391935841736
    vertex -155.3012647976878 -120.44985027900206 27.417033153404795
  endloop
endfacet
facet normal -6.189805043001519e-06 -0.16165169999812737 0.9868478747250773
  outer loop
    vertex -155.30125413857704 -119.94706812856501 27.499391935841736
    vertex 3.6987341084579506 -120.46838905513022 27.414993684370625
    vertex 3.698744767568727 -119.96560690469317 27.49735246680757
  endloop
endfacet
facet normal 0.9999999615124576 -0.00027481661129380246 -3.809086026096602e-05
  outer loop
    vertex 3.698064609402747 -123.96560633354719 -0.0026490398319937176
    vertex 3.6982921473731527 -123.88324822016523 24.000133139793824
    vertex 3.6982270758556273 -123.96560679596612 23.497350959606468
  endloop
endfacet
facet normal 0.9999999615124576 -0.00027481661129380246 -3.809086026096602e-05
  outer loop
    vertex 3.6982921473731527 -123.88324822016523 24.000133139793824
    vertex 3.698064609402747 -123.96560633354719 -0.0026490398319937176
    vertex 3.697979879037398 -120.46560660887086 20.29735496804103
  endloop
endfacet
facet normal 0.9999999615124576 -0.00027481661129380246 -3.809086026096602e-05
  outer loop
    vertex 3.697979879037398 -120.46560660887086 20.29735496804103
    vertex 3.698064609402747 -123.96560633354719 -0.0026490398319937176
    vertex 3.6976072453622346 -112.96560631480789 17.497355118130834
  endloop
endfacet
facet normal 0.9999999615124576 -0.00027481661129380246 -3.809086026096602e-05
  outer loop
    vertex 3.6976072453622346 -112.96560631480789 17.497355118130834
    vertex 3.698064609402747 -123.96560633354719 -0.0026490398319937176
    vertex 3.7309455968315786 2.101070702380284 -0.0011099832519542246
  endloop
endfacet
facet normal 0.9999999615124576 -0.00027481661129380246 -3.809086026096602e-05
  outer loop
    vertex 3.6982921473731527 -123.88324822016523 24.000133139793824
    vertex 3.697979879037398 -120.46560660887086 20.29735496804103
    vertex 3.698355596965008 -123.74458458868135 24.490383334321127
  endloop
endfacet
facet normal 0.9999999615124576 -0.00027481661129380246 -3.809086026096602e-05
  outer loop
    vertex 3.698355596965008 -123.74458458868135 24.490383334321127
    vertex 3.697979879037398 -120.46560660887086 20.29735496804103
    vertex 3.6984166113086476 -123.55139334805713 24.961817317800822
  endloop
endfacet
facet normal 0.9999999615124576 -0.00027481661129380246 -3.809086026096602e-05
  outer loop
    vertex 3.6984166113086476 -123.55139334805713 24.961817317800822
    vertex 3.697979879037398 -120.46560660887086 20.29735496804103
    vertex 3.6984744082975243 -123.30615090179542 25.40839205865311
  endloop
endfacet
facet normal 0.9999999615124576 -0.00027481661129380246 -3.809086026096602e-05
  outer loop
    vertex 3.6984744082975243 -123.30615090179542 25.40839205865311
    vertex 3.697979879037398 -120.46560660887086 20.29735496804103
    vertex 3.698528247066445 -123.01200086681693 25.824383181130198
  endloop
endfacet
facet normal 0.9999999615124576 -0.00027481661129380246 -3.809086026096602e-05
  outer loop
    vertex 3.698528247066445 -123.01200086681693 25.824383181130198
    vertex 3.697979879037398 -120.46560660887086 20.29735496804103
    vertex 3.698577437488283 -122.67271377730644 26.204458342681185
  endloop
endfacet
facet normal 0.9999999615124576 -0.00027481661129380246 -3.809086026096602e-05
  outer loop
    vertex 3.698577437488283 -122.67271377730644 26.204458342681185
    vertex 3.697979879037398 -120.46560660887086 20.29735496804103
    vertex 3.6986213490203035 -122.29263875247976 26.54374558607676
  endloop
endfacet
facet normal 0.9999999615124576 -0.00027481661129380246 -3.809086026096602e-05
  outer loop
    vertex 3.6986213490203035 -122.29263875247976 26.54374558607676
    vertex 3.697979879037398 -120.46560660887086 20.29735496804103
    vertex 3.69865941878672 -121.87664774781356 26.837895790128574
  endloop
endfacet
facet normal 0.9999999615124576 -0.00027481661129380246 -3.809086026096602e-05
  outer loop
    vertex 3.69865941878672 -121.87664774781356 26.837895790128574
    vertex 3.697979879037398 -120.46560660887086 20.29735496804103
    vertex 3.69869115879386 -121.43007310434865 27.08313841848459
  endloop
endfacet
facet normal 0.9999999615124576 -0.00027481661129380246 -3.809086026096602e-05
  outer loop
    vertex 3.69869115879386 -121.43007310434865 27.08313841848459
    vertex 3.697979879037398 -120.46560660887086 20.29735496804103
    vertex 3.698716162185468 -120.95863919658444 27.276329851889923
  endloop
endfacet
facet normal 0.9999999615124576 -0.00027481661129380246 -3.809086026096602e-05
  outer loop
    vertex 3.698716162185468 -120.95863919658444 27.276329851889923
    vertex 3.697979879037398 -120.46560660887086 20.29735496804103
    vertex 3.6987341084579506 -120.46838905513022 27.414993684370625
  endloop
endfacet
facet normal 0.9999999615124576 -0.00027481661129380246 -3.809086026096602e-05
  outer loop
    vertex 3.6987341084579506 -120.46838905513022 27.414993684370625
    vertex 3.697979879037398 -120.46560660887086 20.29735496804103
    vertex 3.6980068415550775 -120.4656066856127 24.19735496794784
  endloop
endfacet
facet normal 0.9999999615124576 -0.00027481661129380246 -3.809086026096602e-05
  outer loop
    vertex 3.697979879037398 -120.46560660887086 20.29735496804103
    vertex 3.6976072453622346 -112.96560631480789 17.497355118130834
    vertex 3.6976266030672806 -112.96560636990459 20.297355118063916
  endloop
endfacet
facet normal 0.9999999615124576 -0.00027481661129380246 -3.809086026096602e-05
  outer loop
    vertex 3.6976072453622346 -112.96560631480789 17.497355118130834
    vertex 3.7309455968315786 2.101070702380284 -0.0011099832519542246
    vertex 3.7304977400020074 -8.899009176757284 17.498860035262847
  endloop
endfacet
facet normal 0.9999999615124576 -0.00027481661129380246 -3.809086026096602e-05
  outer loop
    vertex 3.7304977400020074 -8.899009176757284 17.498860035262847
    vertex 3.7309455968315786 2.101070702380284 -0.0011099832519542246
    vertex 3.7308703721755974 -1.399021660801978 20.29889411201221
  endloop
endfacet
facet normal 0.9999999615124576 -0.00027481661129380246 -3.809086026096602e-05
  outer loop
    vertex 3.7308703721755974 -1.399021660801978 20.29889411201221
    vertex 3.7309455968315786 2.101070702380284 -0.0011099832519542246
    vertex 3.731574436930029 -1.3962714818909825 27.4165219944131
  endloop
endfacet
facet normal 0.9999999615124576 -0.00027481661129380246 -3.809086026096602e-05
  outer loop
    vertex 3.731574436930029 -1.3962714818909825 27.4165219944131
    vertex 3.7309455968315786 2.101070702380284 -0.0011099832519542246
    vertex 3.731519538982945 -0.9060205528880486 27.277859789020628
  endloop
endfacet
facet normal 0.9999999615124576 -0.00027481661129380246 -3.809086026096602e-05
  outer loop
    vertex 3.731519538982945 -0.9060205528880486 27.277859789020628
    vertex 3.7309455968315786 2.101070702380284 -0.0011099832519542246
    vertex 3.7314652202104783 -0.43458566386398756 27.084669918513217
  endloop
endfacet
facet normal 0.9999999615124576 -0.00027481661129380246 -3.809086026096602e-05
  outer loop
    vertex 3.7314652202104783 -0.43458566386398756 27.084669918513217
    vertex 3.7309455968315786 2.101070702380284 -0.0011099832519542246
    vertex 3.731412176891698 0.01199015014418807 26.839428765490993
  endloop
endfacet
facet normal 0.9999999615124576 -0.00027481661129380246 -3.809086026096602e-05
  outer loop
    vertex 3.731412176891698 0.01199015014418807 26.839428765490993
    vertex 3.7309455968315786 2.101070702380284 -0.0011099832519542246
    vertex 3.7313610889564117 0.42798250735319354 26.54527992605754
  endloop
endfacet
facet normal 0.9999999615124576 -0.00027481661129380246 -3.809086026096602e-05
  outer loop
    vertex 3.7313610889564117 0.42798250735319354 26.54527992605754
    vertex 3.7309455968315786 2.101070702380284 -0.0011099832519542246
    vertex 3.7313126112695665 0.8080590565767453 26.205993913987253
  endloop
endfacet
facet normal 0.9999999615124576 -0.00027481661129380246 -3.809086026096602e-05
  outer loop
    vertex 3.7313126112695665 0.8080590565767453 26.205993913987253
    vertex 3.7309455968315786 2.101070702380284 -0.0011099832519542246
    vertex 3.731267365236931 1.1473478293687651 25.825919828819096
  endloop
endfacet
facet normal 0.9999999615124576 -0.00027481661129380246 -3.809086026096602e-05
  outer loop
    vertex 3.731267365236931 1.1473478293687651 25.825919828819096
    vertex 3.7309455968315786 2.101070702380284 -0.0011099832519542246
    vertex 3.731225930839679 1.4414996908022844 25.409929607413936
  endloop
endfacet
facet normal 0.9999999615124576 -0.00027481661129380246 -3.809086026096602e-05
  outer loop
    vertex 3.731225930839679 1.4414996908022844 25.409929607413936
    vertex 3.7309455968315786 2.101070702380284 -0.0011099832519542246
    vertex 3.731188839199967 1.686744088365743 24.963355573580493
  endloop
endfacet
facet normal 0.9999999615124576 -0.00027481661129380246 -3.809086026096602e-05
  outer loop
    vertex 3.731188839199967 1.686744088365743 24.963355573580493
    vertex 3.7309455968315786 2.101070702380284 -0.0011099832519542246
    vertex 3.7311565657728005 1.879937384365772 24.49192208628308
  endloop
endfacet
facet normal 0.9999999615124576 -0.00027481661129380246 -3.809086026096602e-05
  outer loop
    vertex 3.7311565657728005 1.879937384365772 24.49192208628308
    vertex 3.7309455968315786 2.101070702380284 -0.0011099832519542246
    vertex 3.7311295242514726 2.01860315229295 24.001672162590836
  endloop
endfacet
facet normal 0.9999999615124576 -0.00027481661129380246 -3.809086026096602e-05
  outer loop
    vertex 3.7311295242514726 2.01860315229295 24.001672162590836
    vertex 3.7309455968315786 2.101070702380284 -0.0011099832519542246
    vertex 3.7311080612646785 2.1009639206161554 23.498890015943925
  endloop
endfacet
facet normal 0.9999999615124576 -0.00027481661129380246 -3.809086026096602e-05
  outer loop
    vertex 3.732470013435071 -8.899039217065493 24.19886002172054
    vertex 3.731629210348579 -1.8990542245461681 27.498879108825463
    vertex 3.7324928275895024 -8.899054211951526 27.498860021607587
  endloop
endfacet
facet normal 0.9999999615124576 -0.00027481661129380246 -3.809086026096602e-05
  outer loop
    vertex 3.731629210348579 -1.8990542245461681 27.498879108825463
    vertex 3.732470013435071 -8.899039217065493 24.19886002172054
    vertex 3.7308973343580787 -1.3990393820309281 24.198894111878758
  endloop
endfacet
facet normal 0.9999999615124576 -0.00027481661129380246 -3.809086026096602e-05
  outer loop
    vertex 3.731629210348579 -1.8990542245461681 27.498879108825463
    vertex 3.7308973343580787 -1.3990393820309281 24.198894111878758
    vertex 3.731574436930029 -1.3962714818909825 27.4165219944131
  endloop
endfacet
facet normal 0.9999999615124576 -0.00027481661129380246 -3.809086026096602e-05
  outer loop
    vertex 3.731574436930029 -1.3962714818909825 27.4165219944131
    vertex 3.7308973343580787 -1.3990393820309281 24.198894111878758
    vertex 3.7308703721755974 -1.399021660801978 20.29889411201221
  endloop
endfacet
facet normal 0.9999999615124576 -0.00027481661129380246 -3.809086026096602e-05
  outer loop
    vertex 3.7308703721755974 -1.399021660801978 20.29889411201221
    vertex 3.730517097466399 -8.899021899690888 20.298860035167028
    vertex 3.7304977400020074 -8.899009176757284 17.498860035262847
  endloop
endfacet
facet normal 0.9999999615124576 -0.00027481661129380246 -3.809086026096602e-05
  outer loop
    vertex 3.6980068415550775 -120.4656066856127 24.19735496794784
    vertex 3.698744767568727 -119.96560690469317 27.49735246680757
    vertex 3.6987341084579506 -120.46838905513022 27.414993684370625
  endloop
endfacet
facet normal 0.9999999615124576 -0.00027481661129380246 -3.809086026096602e-05
  outer loop
    vertex 3.698744767568727 -119.96560690469317 27.49735246680757
    vertex 3.6980068415550775 -120.4656066856127 24.19735496794784
    vertex 3.6995795193711505 -112.96560685050042 24.197355104655678
  endloop
endfacet
facet normal 0.9999999615124576 -0.00027481661129380246 -3.809086026096602e-05
  outer loop
    vertex 3.698744767568727 -119.96560690469317 27.49735246680757
    vertex 3.6995795193711505 -112.96560685050042 24.197355104655678
    vertex 3.69960233380921 -112.96560691543584 27.497355104576787
  endloop
endfacet
facet normal -1.2089322612409581e-05 0.16164832500153706 0.9868484275095369
  outer loop
    vertex -155.26836959228305 -1.9185278108778727 27.500121113470982
    vertex 3.731574436930029 -1.3962714818909825 27.4165219944131
    vertex -155.2684243657016 -1.4157450682226873 27.41776399905862
  endloop
endfacet
facet normal -1.8983520711058752e-05 0.21725424004928454 0.9761150520406053
  outer loop
    vertex 3.731574436930029 -1.3962714818909825 27.4165219944131
    vertex -155.26836959228305 -1.9185278108778727 27.500121113470982
    vertex 3.731629210348579 -1.8990542245461681 27.498879108825463
  endloop
endfacet
facet normal -1.8983403219957445e-05 0.21725329417247832 0.9761152625642308
  outer loop
    vertex -155.2684243657016 -1.4157450682226873 27.41776399905862
    vertex 3.731519538982945 -0.9060205528880486 27.277859789020628
    vertex -155.2684792636487 -0.9254941392197534 27.27910179366615
  endloop
endfacet
facet normal -3.2567222565410304e-05 0.3261986154232347 0.945301254751807
  outer loop
    vertex 3.731519538982945 -0.9060205528880486 27.277859789020628
    vertex -155.2684243657016 -1.4157450682226873 27.41776399905862
    vertex 3.731574436930029 -1.3962714818909825 27.4165219944131
  endloop
endfacet
facet normal -3.2567129023358656e-05 0.32619786810839974 0.9453015126301856
  outer loop
    vertex -155.2684792636487 -0.9254941392197534 27.27910179366615
    vertex 3.7314652202104783 -0.43458566386398756 27.084669918513217
    vertex -155.26853358242116 -0.4540592501956923 27.08591192315874
  endloop
endfacet
facet normal -4.573346522404552e-05 0.4309616525823289 0.9023702410385429
  outer loop
    vertex 3.7314652202104783 -0.43458566386398756 27.084669918513217
    vertex -155.2684792636487 -0.9254941392197534 27.27910179366615
    vertex 3.731519538982945 -0.9060205528880486 27.277859789020628
  endloop
endfacet
facet normal -4.5733396670211405e-05 0.43096110939233034 0.9023705004596438
  outer loop
    vertex -155.26853358242116 -0.4540592501956923 27.08591192315874
    vertex 3.731412176891698 0.01199015014418807 26.839428765490993
    vertex -155.2685866257399 -0.00748343618751673 26.840670770136512
  endloop
endfacet
facet normal -5.831347916678884e-05 0.5302004622425496 0.8478723172962572
  outer loop
    vertex 3.731412176891698 0.01199015014418807 26.839428765490993
    vertex -155.26853358242116 -0.4540592501956923 27.08591192315874
    vertex 3.7314652202104783 -0.43458566386398756 27.084669918513217
  endloop
endfacet
facet normal -5.831343536321146e-05 0.5302001183075887 0.8478725323692012
  outer loop
    vertex -155.2685866257399 -0.00748343618751673 26.840670770136512
    vertex 3.7313610889564117 0.42798250735319354 26.54527992605754
    vertex -155.26863771367522 0.4085089210214888 26.54652193070306
  endloop
endfacet
facet normal -7.014600937572066e-05 0.6226429667149657 0.7825060581745826
  outer loop
    vertex 3.7313610889564117 0.42798250735319354 26.54527992605754
    vertex -155.2685866257399 -0.00748343618751673 26.840670770136512
    vertex 3.731412176891698 0.01199015014418807 26.839428765490993
  endloop
endfacet
facet normal -7.014598881947247e-05 0.6226428069814702 0.7825061852750915
  outer loop
    vertex -155.26863771367522 0.4085089210214888 26.54652193070306
    vertex 3.7313126112695665 0.8080590565767453 26.205993913987253
    vertex -155.26868619136206 0.7885854702450406 26.207235918632776
  endloop
endfacet
facet normal -8.107938234021381e-05 0.7071042056950894 0.7071093520202166
  outer loop
    vertex 3.7313126112695665 0.8080590565767453 26.205993913987253
    vertex -155.26863771367522 0.4085089210214888 26.54652193070306
    vertex 3.7313610889564117 0.42798250735319354 26.54527992605754
  endloop
endfacet
facet normal -9.097346705851332e-05 0.7825016524641942 0.6226485008531165
  outer loop
    vertex -155.2687314373947 1.1278742430370603 25.82716183346462
    vertex 3.7313126112695665 0.8080590565767453 26.205993913987253
    vertex 3.731267365236931 1.1473478293687651 25.825919828819096
  endloop
endfacet
facet normal -8.107938234021381e-05 0.7071042056950894 0.7071093520202166
  outer loop
    vertex 3.7313126112695665 0.8080590565767453 26.205993913987253
    vertex -155.2687314373947 1.1278742430370603 25.82716183346462
    vertex -155.26868619136206 0.7885854702450406 26.207235918632776
  endloop
endfacet
facet normal -9.970141644185966e-05 0.8478686711759568 0.5302062867393642
  outer loop
    vertex -155.26877287179195 1.4220261044705795 25.41117161205946
    vertex 3.731267365236931 1.1473478293687651 25.825919828819096
    vertex 3.731225930839679 1.4414996908022844 25.409929607413936
  endloop
endfacet
facet normal -9.097345024396014e-05 0.7825015253625245 0.6226486605856901
  outer loop
    vertex 3.731267365236931 1.1473478293687651 25.825919828819096
    vertex -155.26877287179195 1.4220261044705795 25.41117161205946
    vertex -155.2687314373947 1.1278742430370603 25.82716183346462
  endloop
endfacet
facet normal -0.00010715135202020805 0.9023673603783892 0.4309676733147465
  outer loop
    vertex -155.26880996343166 1.6672705020340384 24.964597578226016
    vertex 3.731225930839679 1.4414996908022844 25.409929607413936
    vertex 3.731188839199967 1.686744088365743 24.963355573580493
  endloop
endfacet
facet normal -9.970138741382742e-05 0.8478684561005135 0.5302066306727641
  outer loop
    vertex 3.731225930839679 1.4414996908022844 25.409929607413936
    vertex -155.26880996343166 1.6672705020340384 24.964597578226016
    vertex -155.26877287179195 1.4220261044705795 25.41117161205946
  endloop
endfacet
facet normal -0.00011322777749948743 0.9452991339117445 0.3262047433823983
  outer loop
    vertex -155.26884223685883 1.8604637980340675 24.493164090928605
    vertex 3.731188839199967 1.686744088365743 24.963355573580493
    vertex 3.7311565657728005 1.879937384365772 24.49192208628308
  endloop
endfacet
facet normal -0.00010715131600399248 0.9023671009533412 0.43096821650286254
  outer loop
    vertex 3.731188839199967 1.686744088365743 24.963355573580493
    vertex -155.26884223685883 1.8604637980340675 24.493164090928605
    vertex -155.26880996343166 1.6672705020340384 24.964597578226016
  endloop
endfacet
facet normal -0.00011785280287693044 0.9761136756999548 0.21726039266796943
  outer loop
    vertex -155.26886927838015 1.9991295659612456 24.002914167236362
    vertex 3.7311565657728005 1.879937384365772 24.49192208628308
    vertex 3.7311295242514726 2.01860315229295 24.001672162590836
  endloop
endfacet
facet normal -0.00011322774007754488 0.945298876027934 0.3262054906953644
  outer loop
    vertex 3.7311565657728005 1.879937384365772 24.49192208628308
    vertex -155.26886927838015 1.9991295659612456 24.002914167236362
    vertex -155.26884223685883 1.8604637980340675 24.493164090928605
  endloop
endfacet
facet normal -0.00011960175017918264 0.9868472448425807 0.1616555011189811
  outer loop
    vertex -155.26889074136696 2.081490334284451 23.500132020589447
    vertex 3.7311295242514726 2.01860315229295 24.001672162590836
    vertex 3.7311080612646785 2.1009639206161554 23.498890015943925
  endloop
endfacet
facet normal -0.00011785276970356303 0.976113465169454 0.2172613385432525
  outer loop
    vertex 3.7311295242514726 2.01860315229295 24.001672162590836
    vertex -155.26889074136696 2.081490334284451 23.500132020589447
    vertex -155.26886927838015 1.9991295659612456 24.002914167236362
  endloop
endfacet
endsolid MouseBox_3dPrint_Top
