 0
SECTION
 2
ENTITIES
  0
LINE
 8
Layer0
10
118.79999999999983
20
182.6
30
-2.2541700366690412e-29
11
118.73949642232805
21
26.60000000000004
31
-2.25597318603832e-14
  0
LINE
 8
Layer0
10
2.799999999999978
20
182.6
30
-2.2541700366690412e-29
11
118.79999999999983
21
182.6
31
-2.2541700366690412e-29
  0
LINE
 8
Layer0
10
2.799999999999978
20
26.59999999999995
30
-2.2541700366690412e-29
11
2.799999999999978
21
182.6
31
-2.2541700366690412e-29
  0
LINE
 8
Layer0
10
23.89849327523887
20
17.348524279678102
30
-2.2541700366690412e-29
11
23.799999999999997
21
18.599999999999966
31
-2.2541700366690412e-29
  0
LINE
 8
Layer0
10
23.89849327523887
20
19.851475720321833
30
-2.2541700366690412e-29
11
23.799999999999997
21
18.599999999999966
31
-2.2541700366690412e-29
  0
LINE
 8
Layer0
10
24.02104063681859
20
20.467562910847168
30
-2.2541700366690412e-29
11
23.89849327523887
21
19.851475720321833
31
-2.2541700366690412e-29
  0
LINE
 8
Layer0
10
24.19154786963879
20
21.072135954999496
30
-2.2541700366690412e-29
11
24.02104063681859
21
20.467562910847168
31
-2.2541700366690412e-29
  0
LINE
 8
Layer0
10
24.408963739909705
20
21.661467458920644
30
-2.2541700366690412e-29
11
24.19154786963879
21
21.072135954999496
31
-2.2541700366690412e-29
  0
LINE
 8
Layer0
10
24.671947806493055
20
22.231923997916365
30
-2.2541700366690412e-29
11
24.408963739909705
21
21.661467458920644
31
-2.2541700366690412e-29
  0
LINE
 8
Layer0
10
24.97887868516728
20
22.779988517727585
30
-2.2541700366690412e-29
11
24.671947806493055
21
22.231923997916365
31
-2.2541700366690412e-29
  0
LINE
 8
Layer0
10
25.32786404500042
20
23.302282018339778
30
-2.2541700366690412e-29
11
24.97887868516728
21
22.779988517727585
31
-2.2541700366690412e-29
  0
LINE
 8
Layer0
10
25.716752275199735
20
23.795584386641405
30
-2.2541700366690412e-29
11
25.32786404500042
21
23.302282018339778
31
-2.2541700366690412e-29
  0
LINE
 8
Layer0
10
26.143145750507642
20
24.256854249492356
30
-2.2541700366690412e-29
11
25.716752275199735
21
23.795584386641405
31
-2.2541700366690412e-29
  0
LINE
 8
Layer0
10
26.60441561335855
20
24.683247724800175
30
-2.2541700366690412e-29
11
26.143145750507642
21
24.256854249492356
31
-2.2541700366690412e-29
  0
LINE
 8
Layer0
10
27.09771798166022
20
25.072135954999492
30
-2.2541700366690412e-29
11
26.60441561335855
21
24.683247724800175
31
-2.2541700366690412e-29
  0
LINE
 8
Layer0
10
27.620011482272417
20
25.42112131483268
30
-2.2541700366690412e-29
11
27.09771798166022
21
25.072135954999492
31
-2.2541700366690412e-29
  0
LINE
 8
Layer0
10
28.168076002083634
20
25.72805219350686
30
-2.2541700366690412e-29
11
27.620011482272417
21
25.42112131483268
31
-2.2541700366690412e-29
  0
LINE
 8
Layer0
10
28.738532541079266
20
25.991036260090286
30
-2.2541700366690412e-29
11
28.168076002083634
21
25.72805219350686
31
-2.2541700366690412e-29
  0
LINE
 8
Layer0
10
29.327864045000414
20
26.208452130361156
30
-2.2541700366690412e-29
11
28.738532541079266
21
25.991036260090286
31
-2.2541700366690412e-29
  0
LINE
 8
Layer0
10
29.93243708915275
20
26.37895936318136
30
-2.2541700366690412e-29
11
29.327864045000414
21
26.208452130361156
31
-2.2541700366690412e-29
  0
LINE
 8
Layer0
10
30.54852427967813
20
26.501506724761075
30
-2.2541700366690412e-29
11
29.93243708915275
21
26.37895936318136
31
-2.2541700366690412e-29
  0
LINE
 8
Layer0
10
31.799999999999994
20
26.59999999999995
30
-2.2541700366690412e-29
11
30.54852427967813
21
26.501506724761075
31
-2.2541700366690412e-29
  0
LINE
 8
Layer0
10
31.799999999999994
20
26.59999999999995
30
-2.2541700366690412e-29
11
89.79999999999984
21
26.59999999999995
31
-2.2541700366690412e-29
  0
LINE
 8
Layer0
10
89.79999999999984
20
26.59999999999995
30
-2.2541700366690412e-29
11
91.0514757203217
21
26.501506724761075
31
-2.2541700366690412e-29
  0
LINE
 8
Layer0
10
91.0514757203217
20
26.501506724761075
30
-2.2541700366690412e-29
11
91.66756291084704
21
26.37895936318136
31
-2.2541700366690412e-29
  0
LINE
 8
Layer0
10
91.66756291084704
20
26.37895936318136
30
-2.2541700366690412e-29
11
92.27213595499937
21
26.208452130361156
31
-2.2541700366690412e-29
  0
LINE
 8
Layer0
10
92.27213595499937
20
26.208452130361156
30
-2.2541700366690412e-29
11
92.86146745892052
21
25.991036260090286
31
-2.2541700366690412e-29
  0
LINE
 8
Layer0
10
92.86146745892052
20
25.991036260090286
30
-2.2541700366690412e-29
11
93.43192399791614
21
25.72805219350686
31
-2.2541700366690412e-29
  0
LINE
 8
Layer0
10
93.43192399791614
20
25.72805219350686
30
-2.2541700366690412e-29
11
93.97998851772736
21
25.42112131483268
31
-2.2541700366690412e-29
  0
LINE
 8
Layer0
10
93.97998851772736
20
25.42112131483268
30
-2.2541700366690412e-29
11
94.50228201833956
21
25.072135954999492
31
-2.2541700366690412e-29
  0
LINE
 8
Layer0
10
94.50228201833956
20
25.072135954999492
30
-2.2541700366690412e-29
11
94.99558438664128
21
24.683247724800175
31
-2.2541700366690412e-29
  0
LINE
 8
Layer0
10
94.99558438664128
20
24.683247724800175
30
-2.2541700366690412e-29
11
95.45685424949214
21
24.256854249492356
31
-2.2541700366690412e-29
  0
LINE
 8
Layer0
10
95.45685424949214
20
24.256854249492356
30
-2.2541700366690412e-29
11
95.88324772480004
21
23.795584386641405
31
-2.2541700366690412e-29
  0
LINE
 8
Layer0
10
95.88324772480004
20
23.795584386641405
30
-2.2541700366690412e-29
11
96.27213595499936
21
23.302282018339778
31
-2.2541700366690412e-29
  0
LINE
 8
Layer0
10
96.27213595499936
20
23.302282018339778
30
-2.2541700366690412e-29
11
96.62112131483255
21
22.779988517727585
31
-2.2541700366690412e-29
  0
LINE
 8
Layer0
10
96.62112131483255
20
22.779988517727585
30
-2.2541700366690412e-29
11
96.92805219350673
21
22.231923997916365
31
-2.2541700366690412e-29
  0
LINE
 8
Layer0
10
96.92805219350673
20
22.231923997916365
30
-2.2541700366690412e-29
11
97.19103626009006
21
21.661467458920644
31
-2.2541700366690412e-29
  0
LINE
 8
Layer0
10
97.19103626009006
20
21.661467458920644
30
-2.2541700366690412e-29
11
97.40845213036098
21
21.072135954999496
31
-2.2541700366690412e-29
  0
LINE
 8
Layer0
10
97.40845213036098
20
21.072135954999496
30
-2.2541700366690412e-29
11
97.57895936318118
21
20.467562910847168
31
-2.2541700366690412e-29
  0
LINE
 8
Layer0
10
97.57895936318118
20
20.467562910847168
30
-2.2541700366690412e-29
11
97.7015067247609
21
19.851475720321833
31
-2.2541700366690412e-29
  0
LINE
 8
Layer0
10
97.7015067247609
20
19.851475720321833
30
-2.2541700366690412e-29
11
97.79999999999977
21
18.599999999999966
31
-2.2541700366690412e-29
  0
LINE
 8
Layer0
10
97.7015067247609
20
17.348524279678102
30
-2.2541700366690412e-29
11
97.79999999999977
21
18.599999999999966
31
-2.2541700366690412e-29
  0
LINE
 8
Layer0
10
97.57895936318118
20
16.732437089152768
30
-2.2541700366690412e-29
11
97.7015067247609
21
17.348524279678102
31
-2.2541700366690412e-29
  0
LINE
 8
Layer0
10
97.40845213036098
20
16.127864045000432
30
-2.2541700366690412e-29
11
97.57895936318118
21
16.732437089152768
31
-2.2541700366690412e-29
  0
LINE
 8
Layer0
10
97.19103626009006
20
15.538532541079284
30
-2.2541700366690412e-29
11
97.40845213036098
21
16.127864045000432
31
-2.2541700366690412e-29
  0
LINE
 8
Layer0
10
96.92805219350673
20
14.968076002083563
30
-2.2541700366690412e-29
11
97.19103626009006
21
15.538532541079284
31
-2.2541700366690412e-29
  0
LINE
 8
Layer0
10
96.62112131483255
20
14.42001148227234
30
-2.2541700366690412e-29
11
96.92805219350673
21
14.968076002083563
31
-2.2541700366690412e-29
  0
LINE
 8
Layer0
10
96.27213595499936
20
13.897717981660145
30
-2.2541700366690412e-29
11
96.62112131483255
21
14.42001148227234
31
-2.2541700366690412e-29
  0
LINE
 8
Layer0
10
95.88324772480004
20
13.404415613358514
30
-2.2541700366690412e-29
11
96.27213595499936
21
13.897717981660145
31
-2.2541700366690412e-29
  0
LINE
 8
Layer0
10
95.45685424949214
20
12.94314575050756
30
-2.2541700366690412e-29
11
95.88324772480004
21
13.404415613358514
31
-2.2541700366690412e-29
  0
LINE
 8
Layer0
10
94.99558438664128
20
12.51675227519975
30
-2.2541700366690412e-29
11
95.45685424949214
21
12.94314575050756
31
-2.2541700366690412e-29
  0
LINE
 8
Layer0
10
94.50228201833956
20
12.127864045000434
30
-2.2541700366690412e-29
11
94.99558438664128
21
12.51675227519975
31
-2.2541700366690412e-29
  0
LINE
 8
Layer0
10
93.97998851772736
20
11.778878685167248
30
-2.2541700366690412e-29
11
94.50228201833956
21
12.127864045000434
31
-2.2541700366690412e-29
  0
LINE
 8
Layer0
10
93.43192399791614
20
11.471947806493068
30
-2.2541700366690412e-29
11
93.97998851772736
21
11.778878685167248
31
-2.2541700366690412e-29
  0
LINE
 8
Layer0
10
92.86146745892052
20
11.20896373990964
30
-2.2541700366690412e-29
11
93.43192399791614
21
11.471947806493068
31
-2.2541700366690412e-29
  0
LINE
 8
Layer0
10
92.27213595499937
20
10.991547869638769
30
-2.2541700366690412e-29
11
92.86146745892052
21
11.20896373990964
31
-2.2541700366690412e-29
  0
LINE
 8
Layer0
10
91.66756291084704
20
10.821040636818568
30
-2.2541700366690412e-29
11
92.27213595499937
21
10.991547869638769
31
-2.2541700366690412e-29
  0
LINE
 8
Layer0
10
91.0514757203217
20
10.698493275238851
30
-2.2541700366690412e-29
11
91.66756291084704
21
10.821040636818568
31
-2.2541700366690412e-29
  0
LINE
 8
Layer0
10
89.79999999999984
20
10.599999999999975
30
-2.2541700366690412e-29
11
91.0514757203217
21
10.698493275238851
31
-2.2541700366690412e-29
  0
LINE
 8
Layer0
10
89.79999999999984
20
10.599999999999975
30
-2.2541700366690412e-29
11
31.799999999999994
21
10.599999999999975
31
-2.2541700366690412e-29
  0
LINE
 8
Layer0
10
31.799999999999994
20
10.599999999999975
30
-2.2541700366690412e-29
11
30.54852427967813
21
10.698493275238851
31
-2.2541700366690412e-29
  0
LINE
 8
Layer0
10
30.54852427967813
20
10.698493275238851
30
-2.2541700366690412e-29
11
29.93243708915275
21
10.821040636818568
31
-2.2541700366690412e-29
  0
LINE
 8
Layer0
10
29.93243708915275
20
10.821040636818568
30
-2.2541700366690412e-29
11
29.327864045000414
21
10.991547869638769
31
-2.2541700366690412e-29
  0
LINE
 8
Layer0
10
29.327864045000414
20
10.991547869638769
30
-2.2541700366690412e-29
11
28.738532541079266
21
11.20896373990964
31
-2.2541700366690412e-29
  0
LINE
 8
Layer0
10
28.738532541079266
20
11.20896373990964
30
-2.2541700366690412e-29
11
28.168076002083634
21
11.471947806493068
31
-2.2541700366690412e-29
  0
LINE
 8
Layer0
10
28.168076002083634
20
11.471947806493068
30
-2.2541700366690412e-29
11
27.620011482272417
21
11.778878685167248
31
-2.2541700366690412e-29
  0
LINE
 8
Layer0
10
27.620011482272417
20
11.778878685167248
30
-2.2541700366690412e-29
11
27.09771798166022
21
12.127864045000434
31
-2.2541700366690412e-29
  0
LINE
 8
Layer0
10
27.09771798166022
20
12.127864045000434
30
-2.2541700366690412e-29
11
26.60441561335855
21
12.51675227519975
31
-2.2541700366690412e-29
  0
LINE
 8
Layer0
10
26.60441561335855
20
12.51675227519975
30
-2.2541700366690412e-29
11
26.143145750507642
21
12.94314575050756
31
-2.2541700366690412e-29
  0
LINE
 8
Layer0
10
26.143145750507642
20
12.94314575050756
30
-2.2541700366690412e-29
11
25.716752275199735
21
13.404415613358514
31
-2.2541700366690412e-29
  0
LINE
 8
Layer0
10
25.716752275199735
20
13.404415613358514
30
-2.2541700366690412e-29
11
25.32786404500042
21
13.897717981660145
31
-2.2541700366690412e-29
  0
LINE
 8
Layer0
10
25.32786404500042
20
13.897717981660145
30
-2.2541700366690412e-29
11
24.97887868516728
21
14.42001148227234
31
-2.2541700366690412e-29
  0
LINE
 8
Layer0
10
24.97887868516728
20
14.42001148227234
30
-2.2541700366690412e-29
11
24.671947806493055
21
14.968076002083563
31
-2.2541700366690412e-29
  0
LINE
 8
Layer0
10
24.671947806493055
20
14.968076002083563
30
-2.2541700366690412e-29
11
24.408963739909705
21
15.538532541079284
31
-2.2541700366690412e-29
  0
LINE
 8
Layer0
10
24.408963739909705
20
15.538532541079284
30
-2.2541700366690412e-29
11
24.19154786963879
21
16.127864045000432
31
-2.2541700366690412e-29
  0
LINE
 8
Layer0
10
24.19154786963879
20
16.127864045000432
30
-2.2541700366690412e-29
11
24.02104063681859
21
16.732437089152768
31
-2.2541700366690412e-29
  0
LINE
 8
Layer0
10
24.02104063681859
20
16.732437089152768
30
-2.2541700366690412e-29
11
23.89849327523887
21
17.348524279678102
31
-2.2541700366690412e-29
  0
LINE
 8
Layer0
10
30.7823741384403
20
1.5999999999999746
30
-3.286042957244796e-15
11
90.7823741384403
21
1.5999999999999746
31
-3.286042957244796e-15
  0
LINE
 8
Layer0
10
30.7823741384403
20
1.5999999999999746
30
-3.286042957244796e-15
11
27.613512631724873
21
2.414824584857972
31
-2.7492861917582815e-15
  0
LINE
 8
Layer0
10
27.613512631724873
20
2.414824584857972
30
-2.7492861917582815e-15
11
24.527235930533006
21
3.5013412559275037
31
-2.2504353261876916e-15
  0
LINE
 8
Layer0
10
24.527235930533006
20
3.5013412559275037
30
-2.2504353261876916e-15
11
21.546790474144142
21
4.851366157298871
31
-1.7932478027453556e-15
  0
LINE
 8
Layer0
10
21.546790474144142
20
4.851366157298871
30
-1.7932478027453556e-15
11
18.694625560218746
21
6.454730637572996
31
-1.3811672472082215e-15
  0
LINE
 8
Layer0
10
18.694625560218746
20
6.454730637572996
30
-1.3811672472082215e-15
11
15.992224252300959
21
8.299357842131137
31
-1.0172975308554994e-15
  0
LINE
 8
Layer0
10
15.992224252300959
20
8.299357842131137
30
-1.0172975308554994e-15
11
13.459941565185439
21
10.371353678364112
31
-7.043793915035872e-16
  0
LINE
 8
Layer0
10
13.459941565185439
20
10.371353678364112
30
-7.043793915035872e-16
11
11.116851146967853
21
12.65511146869318
31
-4.447697897331956e-16
  0
LINE
 8
Layer0
10
11.116851146967853
20
12.65511146869318
30
-4.447697897331956e-16
11
8.980601612599775
21
15.13342950311571
31
-2.404241558016247e-16
  0
LINE
 8
Layer0
10
8.980601612599775
20
15.13342950311571
30
-2.404241558016247e-16
11
7.067283611071697
21
17.78764060584669
31
-9.288166095991262e-17
  0
LINE
 8
Layer0
10
7.067283611071697
20
17.78764060584669
30
-9.288166095991262e-17
11
5.391308627500166
21
20.597752740134954
31
-3.253624114149348e-18
  0
LINE
 8
Layer0
10
5.391308627500166
20
20.597752740134954
30
-3.253624114149348e-18
11
3.965300433005367
21
23.542599592191184
31
2.778485884570097e-17
  0
LINE
 8
Layer0
10
3.965300433005367
20
23.542599592191184
30
2.778485884570097e-17
11
2.799999999999978
21
26.59999999999995
31
-2.2541700366690412e-29
  0
LINE
 8
Layer0
10
90.7823741384403
20
1.5999999999999746
30
-3.286042957244796e-15
11
93.9496057760303
21
2.4151470048871917
31
-3.914478548545643e-15
  0
LINE
 8
Layer0
10
93.9496057760303
20
2.4151470048871917
30
-3.914478548545643e-15
11
97.03418554253629
21
3.501971990701081
31
-4.752363615295032e-15
  0
LINE
 8
Layer0
10
97.03418554253629
20
3.501971990701081
30
-4.752363615295032e-15
11
100.01285750387738
21
4.852280930332321
31
-5.793380992318193e-15
  0
LINE
 8
Layer0
10
100.01285750387738
20
4.852280930332321
30
-5.793380992318193e-15
11
102.86316420911199
21
6.455893281189678
31
-7.029682015184391e-15
  0
LINE
 8
Layer0
10
102.86316420911199
20
6.455893281189678
30
-7.029682015184391e-15
11
105.56361600653223
21
8.300718740559033
31
-8.451945694563363e-15
  0
LINE
 8
Layer0
10
105.56361600653223
20
8.300718740559033
30
-8.451945694563363e-15
11
108.09385306311599
21
10.372848399440935
31
-1.0049448991053604e-14
  0
LINE
 8
Layer0
10
108.09385306311599
20
10.372848399440935
30
-1.0049448991053604e-14
11
110.43479886580431
21
12.656659607619806
31
-1.1810147660651212e-14
  0
LINE
 8
Layer0
10
110.43479886580431
20
12.656659607619806
30
-1.1810147660651212e-14
11
112.56880404729426
21
15.134933759343475
31
-1.3720767061331654e-14
  0
LINE
 8
Layer0
10
112.56880404729426
20
15.134933759343475
30
-1.3720767061331654e-14
11
114.47977945198414
21
17.7889861115773
31
-1.5766902236115543e-14
  0
LINE
 8
Layer0
10
114.47977945198414
20
17.7889861115773
30
-1.5766902236115543e-14
11
116.1533174388318
21
20.59880665607929
31
-1.7933126518050672e-14
  0
LINE
 8
Layer0
10
116.1533174388318
20
20.59880665607929
30
-1.7933126518050672e-14
11
117.57680050657287
21
23.54321098320254
31
-2.0203107838291785e-14
  0
LINE
 8
Layer0
10
117.57680050657287
20
23.54321098320254
30
-2.0203107838291785e-14
11
118.73949642232805
21
26.60000000000004
31
-2.25597318603832e-14
 0
ENDSEC
 0
EOF
